<svg xmlns="http://www.w3.org/2000/svg" viewBox="0 0 640 480"><defs><clipPath id="a"><path fill-opacity=".7" d="M-5.3-6h40v30h-40z"/></clipPath></defs><g clip-path="url(#a)" transform="matrix(16 0 0 16 84.8 96)"><path fill="#fff" d="M-5.3-6h40v30h-40z"/><path fill="#df112d" fill-rule="evenodd" d="M-10.3-6v2L11.6 9l-21.8 13v2H-7l21.8-13 21.7 13h3.2v-2L18 9 39.8-4v-2h-3.3L14.7 7-7-6h-3.2z"/><g stroke="#000"><path fill="#e8112d" stroke-width=".020361000000000004" d="M17.319-1.48c.631 2.606.285 5.823-2.627 7.615-2.89-1.792-3.257-5.009-2.606-7.615.693-.61 3.787-.998 5.233 0z"/><path fill="#f9dd16" stroke-width=".020361000000000004" d="M14.713-2.01a5.135 5.135 0 0 1 2.626.652 5.701 5.701 0 0 1 .998-2.463c-.509 0-.733.264-.733.529-.122-.346-.61-.326-.774-.143.55.367.123 1.019-.366.896-.224-.06-.346-.224-.407-.468a.265.265 0 1 0-.102 0c-.143.204-.387.326-.631.265-.265-.061-.387-.306-.387-.51 0-.549.53-.63.692-.529 0-.366-.59-.672-.774-.366.204-.387.163-.876-.163-1.181a.977.977 0 0 0-.162 1.16c-.184-.305-.754 0-.754.367.143-.102.672-.02.672.53 0 .203-.122.447-.366.508a.61.61 0 0 1-.652-.264c.04 0 .082-.041.122-.082a.265.265 0 1 0-.224.082c-.04.244-.183.407-.407.468a.489.489 0 0 1-.366-.896c-.163-.203-.652-.203-.774.143 0-.265-.224-.53-.733-.53a5.701 5.701 0 0 1 1.018 2.464 5.294 5.294 0 0 1 2.647-.631z"/><g fill="#f9dd16" stroke-width=".1"><path d="M16.912.556c-.082 0-.082.102-.102.102.163 0 .244-.061.285-.142v.122c.122-.041.163-.143.122-.204l.143.04c-.082-.06-.02-.203-.163-.284.04 0 .122.04.163.102-.02-.143-.041-.224-.163-.306h.102a.183.183 0 0 1-.082-.163c0-.081-.04-.081-.122-.06l-.366.02c-.204 0-.408 0-.57-.123.264.123.61-.122.61-.305 0-.204-.285-.407-.814-.285-.53.122-1.181.081-1.181-.102s.468-.204.713-.163c.244.04.407.061.855-.102-.102.041-.469.061-.754-.02s-.977-.081-.977.285c0 .387.733.346 1.385.244.366-.04.57 0 .57.102 0 .122-.346.163-.611.143a2.036 2.036 0 0 0-.835.06c-.265.082-.448 0-.733.062-.142 0-.489 0-.651-.285-.102.081-.408.224-.469.387-.06.122 0 .264.082.407.122.163-.061.142-.204.142-.163 0-.407 0-.53-.162-.122-.123-.264-.224-.386-.143-.061.061 0 .122.04.102l.163.04a.204.204 0 0 0-.203.02c-.061.042 0 .123.06.103.042-.02.143-.041.204 0-.06 0-.142 0-.162.04s0 .082.06.082c.123 0 .143.081.265.061a.183.183 0 0 0-.142.081c.122-.06.224.082.366.041-.04.02-.142.082-.142.122.081-.101.651.082.651-.142l-.02.163c.061-.041.285-.061.367-.204 0 .04 0 .102-.041.122.06 0 .163-.04.264-.183C14 .312 14 .271 14 .23c.102 0 .163-.02.245-.081.081-.061.162.061.305-.04.122-.082.244 0 .326-.041.06-.041.163 0 .244-.041s.204.02.326-.082c.203.082.468.204 1.059.102.325-.06.448.061.448.204 0 .122-.082.122-.123.122-.203.02-.264-.061-.346-.04-.04.02-.081.101 0 .142-.06.02-.06.081-.02.102s.102 0 .163-.02c-.082.02-.143.08-.102.142.02.04.081.06.142 0 .062-.082.163-.143.245-.143zm-3.787-1.629c-.163-.06-.204-.06-.184.082 0 .06.062.142.102.183 0-.061.02-.204.082-.244z" stroke-width=".020361000000000004"/><path d="M13.674-1.052c.163-.082.224-.082.184.06 0 .062-.061.143-.102.184 0-.061 0-.204-.082-.244z" stroke-width=".020361000000000004"/><path d="M13.41-1.154c.326 0 .366.163.346.346 0 .204-.102.122-.163.407-.02.082-.102.102-.204.102-.06 0-.142 0-.183-.122-.061-.265-.163-.204-.163-.407 0-.163.041-.326.367-.326z" stroke-width=".020361000000000004"/><path d="M12.575-.4c-.082-.041-.143 0-.183 0 .122.02.122.162.366.203-.06 0-.081.04-.142 0 .101.081.203.183.448.183.142 0 .04.061-.041.02.081.102.265.02.387.204 0-.142-.204-.346-.102-.489-.346-.02-.367-.203-.55-.346-.163-.122-.183-.244-.244-.468-.02-.102-.143-.163-.204-.143-.06 0-.102.062-.04.102.04.041.122.041.122.143-.061-.082-.163-.102-.204-.061-.02.04 0 .102.04.102.103 0 .042.122.143.203-.101-.102-.183-.122-.244-.06-.02.04 0 .1.081.1.102 0 .204.245.367.306zm2.647.936c-.04 0-.02.102-.102.102.163 0 .265-.041.326-.102l-.04.102c.08-.061.305-.082.406-.061s.122-.02.163-.082c.04-.081 0-.122-.06-.163-.062-.06-.082-.142-.062-.264-.285-.408-.814-.204-.814-.041.183.224.203.203.366.224.143.04.244.04.143.122-.041.04-.204 0-.306.02-.264 0-.407-.183-.468-.081-.061.081 0 .122.122.122-.081 0-.204 0-.183.082.04.142.163-.02.224.02-.04 0-.122.02-.122.061 0 .04.101.102.203 0a.326.326 0 0 1 .204-.061z" stroke-width=".020361000000000004"/></g><path fill="none" stroke-width=".020361000000000004" d="M15.446-.055a.448.448 0 0 0-.285-.04m-1.14 0c-.082.163-.041.244-.02.325m-.815-1.14c.04.041.081-.04.163.041-.02-.02-.061.061-.123 0m.408-.02c-.061 0-.102-.061-.184.02.02-.02.062.061.123 0m-.123 0v.061c.02.143.062.204-.06.204-.102 0-.062-.061-.041-.204v-.061"/><path fill="#ff0016" stroke-width=".020361000000000004" d="M13.41-.36c.081 0 .122 0 .122-.122 0-.04.061-.061.02-.143.041.082-.142.082-.142.041 0 .04-.204.04-.163-.04-.02.08.04.101.02.142 0 .122.04.122.143.122z"/><path stroke-width=".020361000000000004" d="M13.308-.604l-.204-.061m.204.06h-.204m.204.021l-.183.061m.346-.081l.203-.061m-.203.06h.244m-.244.021l.203.061"/><path fill="#0051ba" d="M12.31-1.236c-.06-.081-.203 0-.203.082.04-.061.122.02.183 0 .02 0 .061-.04.02-.082zm-.06.184c-.062-.082-.225 0-.225.081.04-.06.122.02.183 0 .02 0 .062-.06.041-.081zm-.042.244c-.081-.081-.224 0-.203.102.04-.061.122 0 .163 0 .04-.02.06-.082.02-.102zm.062.753c-.082-.081-.204.02-.204.123.04-.082.142 0 .204-.041 0 0 .04-.061 0-.102zm0 .143c-.102-.02-.204.122-.143.204 0-.102.122-.062.163-.102l-.02-.102zm.122.142c-.102-.04-.204.082-.143.163 0-.06.122-.04.143-.081V.21zm2.382.224c-.102-.02-.204.102-.143.204 0-.102.123-.061.163-.102l-.02-.102zm.122.123c-.102-.02-.183.122-.122.203 0-.102.122-.081.142-.122.02-.02.02-.081 0-.081zm-.081-.285c-.082-.041-.204.081-.184.162.041-.081.143-.02.184-.06V.311zm1.69.203c-.082-.02-.163.122-.123.204 0-.082.123-.061.163-.102 0-.04 0-.102-.04-.102zm0-.142c-.082-.061-.204.06-.163.142.04-.06.142-.02.183-.06V.331zm.081.264c-.102 0-.183.143-.122.204 0-.082.122-.061.142-.102.02-.04 0-.081-.02-.102zM13.41-.44c.06 0 .081.02.081.142 0 .204 0 .326-.081.326-.061 0-.061-.102-.061-.265 0-.081 0-.142-.02-.122 0-.061.02-.081.08-.081z" stroke="none"/><g fill="#f9dd16" stroke-width=".1"><path d="M16.606 2.694c-.06 0-.06.082-.081.082.142 0 .204-.041.244-.123v.102c.122-.02.163-.122.122-.183l.123.04c-.061-.04 0-.183-.143-.244.04 0 .102.02.143.082 0-.122-.041-.204-.143-.265h.082a.163.163 0 0 1-.062-.163c0-.06-.04-.06-.122-.04h-.325c-.184 0-.367 0-.51-.102.245.122.55-.102.55-.265 0-.204-.264-.366-.733-.265-.468.122-1.059.082-1.059-.081s.408-.204.632-.163c.224.04.366.061.773-.081-.081.04-.407.06-.672-.02s-.875-.082-.875.264c0 .346.652.305 1.222.203.346-.02.529 0 .529.102s-.305.143-.55.122a1.832 1.832 0 0 0-.753.062c-.244.081-.407 0-.652.06-.142 0-.448 0-.61-.264-.082.081-.347.204-.408.346-.04.122 0 .244.082.367.102.142-.061.122-.204.122-.122 0-.346 0-.468-.143-.102-.102-.224-.203-.346-.122-.041.061 0 .102.04.081l.143.041a.183.183 0 0 0-.183.02c-.041.041 0 .123.06.102.041-.02.123-.04.184 0l-.143.02c-.02.021 0 .082.062.082.101 0 .122.082.224.061a.163.163 0 0 0-.123.061c.102-.04.204.082.326.041-.04.02-.122.082-.122.122.061-.102.59.061.59-.142l-.02.142c.04-.02.244-.04.326-.183 0 .04 0 .102-.04.122.06 0 .142-.04.243-.163C14 2.471 14 2.43 14 2.39c.082 0 .143 0 .204-.061.081-.061.163.06.285-.041.102-.082.203 0 .285-.04.061-.042.163 0 .224-.042s.204.02.305-.06c.184.06.408.183.937.08.305-.04.407.062.407.204 0 .102-.06.102-.102.102-.203 0-.244-.06-.325-.04-.02 0-.062.081 0 .122-.041.02-.041.081 0 .102s.081 0 .142-.02c-.081 0-.142.06-.102.121.02.041.082.061.143 0 .04-.06.142-.122.203-.122zm-3.4-1.466c-.142-.06-.203-.06-.163.061 0 .061.061.143.082.183 0-.06.02-.203.081-.223z" stroke-width=".020361000000000004"/><path d="M13.715 1.249c.122-.082.204-.082.143.04 0 .061-.041.143-.082.183 0-.06 0-.203-.081-.223z" stroke-width=".020361000000000004"/><path d="M13.47 1.147c.286 0 .327.142.306.325 0 .184-.102.102-.142.367-.02.061-.102.081-.204.081-.04 0-.122 0-.142-.101-.062-.245-.163-.204-.163-.367s.04-.305.346-.305z" stroke-width=".020361000000000004"/><path d="M12.697 1.839c-.061-.04-.122 0-.142 0 .101 0 .101.143.325.183h-.142c.102.061.203.163.407.163.143 0 .04.04-.04 0 .08.102.244.02.366.204 0-.143-.204-.326-.102-.448-.305-.02-.326-.204-.489-.306-.142-.122-.163-.224-.224-.427-.02-.102-.122-.143-.203-.122-.041 0-.082.04 0 .081 0 .04.102.04.102.122-.062-.06-.163-.081-.204-.04 0 .04 0 .081.04.081.102 0 .041.122.143.204-.102-.102-.163-.123-.224-.062-.02.02 0 .082.061.082.102 0 .204.204.346.285zm2.403.814c-.041 0-.02.102-.102.102.142 0 .244-.02.305-.081l-.04.081c.06-.04.264-.06.366-.04s.102-.02.143-.082c.04-.061 0-.102-.061-.142-.041-.062-.062-.123-.041-.245-.265-.366-.733-.183-.733-.04.163.203.183.203.326.203.122.04.203.04.122.122-.041.041-.183 0-.265 0-.244 0-.366-.142-.428-.06-.06.08 0 .101.102.101-.06 0-.183 0-.163.081.041.123.143 0 .204 0-.04 0-.102.041-.102.082 0 .02.082.081.183 0a.285.285 0 0 1 .184-.061z" stroke-width=".020361000000000004"/></g><path fill="none" stroke-width=".020361000000000004" d="M15.303 2.144a.407.407 0 0 0-.264-.04m-1.018 0c-.082.142-.041.203-.02.285m-.734-1.018c.02.04.061-.041.143.04-.02-.02-.061.061-.122 0m.366-.02c-.04 0-.081-.061-.163 0 .02 0 .061.081.122 0m-.122 0v.081c.02.123.061.184-.04.184s-.062-.061-.041-.204v-.04"/><path fill="#ff0016" stroke-width=".020361000000000004" d="M13.47 1.86c.062 0 .103 0 .103-.102 0-.041.06-.062 0-.123.06.061-.102.061-.102.02 0 .041-.204.041-.163-.02 0 .061.04.082.02.123 0 .101.041.101.143.101z"/><path stroke-width=".020361000000000004" d="M13.369 1.656l-.183-.061m.183.06h-.183m.183 0l-.163.062m.306-.061l.203-.061m-.203.06h.224m-.204 0l.163.062"/><path fill="#0051ba" d="M12.473 1.086c-.061-.082-.203 0-.203.06.06-.04.122.021.183 0 0 0 .06-.04 0-.06zm-.061.163c-.04-.082-.204 0-.204.06.041-.04.123.021.163 0 .02 0 .061-.04.041-.06zm-.04.203c-.062-.061-.204 0-.184.102.04-.061.122 0 .163 0 .02 0 .04-.082 0-.082zm.06.692c-.06-.081-.183 0-.183.102.04-.06.122 0 .204-.04v-.062zm0 .123c-.081 0-.183.122-.122.203 0-.102.102-.081.143-.102v-.101zm.123.122c-.102-.02-.204.081-.143.163 0-.061.122-.041.143-.082V2.39zm2.137.203c-.101 0-.203.102-.122.204 0-.102.102-.061.143-.102l-.02-.102zm.102.123c-.081-.02-.163.101-.102.183 0-.102.102-.082.123-.122v-.061zm-.06-.265c-.082-.04-.204.081-.164.142.02-.06.122 0 .163-.04V2.47zm1.506.203c-.061-.04-.143.102-.102.163 0-.06.102-.06.143-.081 0-.04 0-.102-.041-.102zm0-.142c-.061-.061-.183.061-.143.122.041-.061.123 0 .163-.061v-.081zm.081.244c-.101 0-.163.122-.101.183 0-.081.101-.06.122-.101l-.02-.082zm-2.85-.957c.04 0 .06 0 .06.122 0 .184 0 .285-.06.285s-.061-.081-.061-.223c0-.082 0-.143-.02-.123 0-.04 0-.06.08-.06z" stroke="none"/><g fill="#f9dd16" stroke-width=".1"><path d="M130.7 32.2c-.4 0-.4.5-.5.5.8 0 1.2-.3 1.4-.7v.6c.6-.2.8-.7.6-1l.7.2c-.4-.3-.1-1-.8-1.4.2 0 .6.2.8.5-.1-.7-.2-1.1-.8-1.5h.5a.9.9 0 0 1-.4-.8c0-.4-.2-.4-.6-.3l-1.8.1c-1 0-2 0-2.8-.6 1.3.6 3-.6 3-1.5 0-1-1.4-2-4-1.4-2.6.6-5.8.4-5.8-.5s2.3-1 3.5-.8c1.2.2 2 .3 4.2-.5-.5.2-2.3.3-3.7-.1s-4.8-.4-4.8 1.4c0 1.9 3.6 1.7 6.8 1.2 1.8-.2 2.8 0 2.8.5 0 .6-1.7.8-3 .7a10 10 0 0 0-4.1.3c-1.3.4-2.2 0-3.6.3-.7 0-2.4 0-3.2-1.4-.5.4-2 1.1-2.3 1.9-.3.6 0 1.3.4 2 .6.8-.3.7-1 .7-.8 0-2 0-2.6-.8-.6-.6-1.3-1.1-1.9-.7-.3.3 0 .6.2.5l.8.2a1 1 0 0 0-1 .1c-.3.2 0 .6.3.5.2-.1.7-.2 1 0-.3 0-.7 0-.8.2s0 .4.3.4c.6 0 .7.4 1.3.3a.9.9 0 0 0-.7.4c.6-.3 1.1.4 1.8.2-.2.1-.7.4-.7.6.4-.5 3.2.4 3.2-.7l-.1.8c.3-.2 1.4-.3 1.8-1 0 .2 0 .5-.2.6.3 0 .8-.2 1.3-.9.2-.3.2-.5.2-.7.5 0 .8-.1 1.2-.4.4-.3.8.3 1.5-.2.6-.4 1.2 0 1.6-.2.3-.2.8 0 1.2-.2s1 .1 1.6-.4c1 .4 2.3 1 5.2.5 1.6-.3 2.2.3 2.2 1 0 .6-.4.6-.6.6-1 .1-1.3-.3-1.7-.2-.2.1-.4.5 0 .7-.3.1-.3.4-.1.5s.5 0 .8-.1c-.4.1-.7.4-.5.7.1.2.4.3.7 0 .3-.4.8-.7 1.2-.7zm-18.6-8c-.8-.3-1-.3-.9.4 0 .3.3.7.5.9 0-.3.1-1 .4-1.2z" transform="matrix(.14 0 0 .15 -1.718 -.4)"/><path d="M114.8 24.3c.8-.4 1.1-.4.9.3 0 .3-.3.7-.5.9 0-.3 0-1-.4-1.2z" transform="matrix(.14 0 0 .15 -1.718 -.4)"/><path d="M113.5 23.8c1.6 0 1.8.8 1.7 1.7 0 1-.5.6-.8 2-.1.4-.5.5-1 .5-.3 0-.7 0-.9-.6-.3-1.3-.8-1-.8-2 0-.8.2-1.6 1.8-1.6z" transform="matrix(.14 0 0 .15 -1.718 -.4)"/><path d="M109.4 27.5c-.4-.2-.7 0-.9 0 .6.1.6.8 1.8 1-.3 0-.4.2-.7 0 .5.4 1 .9 2.2.9.7 0 .2.3-.2.1.4.5 1.3.1 1.9 1 0-.7-1-1.7-.5-2.4-1.7-.1-1.8-1-2.7-1.7-.8-.6-.9-1.2-1.2-2.3-.1-.5-.7-.8-1-.7-.3 0-.5.3-.2.5.2.2.6.2.6.7-.3-.4-.8-.5-1-.3-.1.2 0 .5.2.5.5 0 .2.6.7 1-.5-.5-.9-.6-1.2-.3-.1.2 0 .5.4.5.5 0 1 1.2 1.8 1.5zm13 4.6c-.2 0-.1.5-.5.5.8 0 1.3-.2 1.6-.5l-.2.5c.4-.3 1.5-.4 2-.3s.6-.1.8-.4c.2-.4 0-.6-.3-.8-.3-.3-.4-.7-.3-1.3-1.4-2-4-1-4-.2.9 1.1 1 1 1.8 1.1.7.2 1.2.2.7.6-.2.2-1 0-1.5.1-1.3 0-2-.9-2.3-.4-.3.4 0 .6.6.6-.4 0-1 0-.9.4.2.7.8-.1 1.1.1-.2 0-.6.1-.6.3 0 .2.5.5 1 0a1.6 1.6 0 0 1 1-.3z" transform="matrix(.14 0 0 .15 -1.718 -.4)"/></g><path fill="none" stroke-width=".1" d="M123.5 29.2c-.4-.2-.9-.3-1.4-.2m-5.6 0c-.4.8-.2 1.2-.1 1.6m-4-5.6c.2.2.4-.2.8.2-.1-.1-.3.3-.6 0m2-.1c-.3 0-.5-.3-.9.1.1-.1.3.3.6 0m-.6 0v.3c.1.7.3 1-.3 1-.5 0-.3-.3-.2-1v-.3" transform="matrix(.14 0 0 .15 -1.718 -.4)"/><path fill="#ff0016" stroke-width=".1" d="M113.5 27.7c.4 0 .6 0 .6-.6 0-.2.3-.3.1-.7.2.4-.7.4-.7.2 0 .2-1 .2-.8-.2-.1.4.2.5.1.7 0 .6.2.6.7.6z" transform="matrix(.14 0 0 .15 -1.718 -.4)"/><path stroke-width=".1" d="M113 26.5l-1-.3m1 .3h-1m1 .1l-.9.3m1.7-.4l1-.3m-1 .3h1.2m-1.2.1l1 .3" transform="matrix(.14 0 0 .15 -1.718 -.4)"/><path fill="#0051ba" d="M13.028 3.173c-.04-.061-.136 0-.136.06.027-.045.082.016.123 0 .013 0 .04-.03.013-.06zm-.04.137c-.041-.061-.15 0-.15.061.027-.046.081.015.122 0 .014 0 .041-.046.027-.06zm-.028.183c-.054-.06-.15 0-.136.077.027-.046.082 0 .109 0 .027-.016.04-.061.014-.077zm.041.565c-.054-.06-.136.016-.136.092.027-.061.095 0 .136-.03 0 0 .027-.046 0-.077zm0 .107c-.068-.015-.136.092-.095.153 0-.076.081-.046.109-.076L13 4.165zm.082.107c-.068-.03-.136.061-.096.122 0-.046.082-.03.096-.06v-.077zm1.596.168c-.068-.015-.136.076-.095.153 0-.077.081-.046.109-.077l-.014-.076zm.082.092c-.068-.016-.123.091-.082.152 0-.076.082-.06.096-.091.013-.015.013-.061 0-.061zm-.055-.214c-.054-.03-.136.061-.122.122.027-.061.095-.015.122-.046v-.06zm1.133.153c-.055-.016-.11.091-.082.152 0-.06.082-.045.109-.076 0-.03 0-.076-.027-.076zm0-.107c-.055-.046-.137.046-.11.107.028-.046.096-.016.123-.046v-.077zm.054.198c-.068 0-.123.107-.082.153 0-.061.082-.046.096-.076.013-.03 0-.061-.014-.077zm-2.128-.794c.041 0 .055.015.055.107 0 .153 0 .244-.055.244-.04 0-.04-.076-.04-.198 0-.061 0-.107-.015-.092 0-.046.014-.06.055-.06z" stroke="none"/></g></g></svg>