<?xml version="1.0" encoding="UTF-8"?>
<svg width="140px" height="75px" viewBox="0 0 140 75" version="1.1" xmlns="http://www.w3.org/2000/svg" xmlns:xlink="http://www.w3.org/1999/xlink">
    <title>messenger-code</title>
    <defs>
        <linearGradient x1="50%" y1="0%" x2="50%" y2="100%" id="linearGradient-1">
            <stop stop-color="#D9DAE3" offset="0%"></stop>
            <stop stop-color="#EBECF4" offset="100%"></stop>
        </linearGradient>
        <path d="M63.7980026,0.53182589 C68.8238667,0.53182589 72.8981345,4.60609372 72.8981345,9.63195779 L72.8981345,27.8364424 C72.8981345,32.8623065 68.8238667,36.9365743 63.7980026,36.9365743 L53.8406376,36.9358259 L53.8410401,44.9584208 C53.8410401,45.8088644 53.1516194,46.4982851 52.3011758,46.4982851 C51.9710041,46.4982851 51.6495752,46.3921614 51.3843103,46.1955706 L38.8896376,36.9358259 L9.18876955,36.9365743 C4.16290548,36.9365743 0.0886376484,32.8623065 0.0886376484,27.8364424 L0.0886376484,9.63195779 C0.0886376484,4.60609372 4.16290548,0.53182589 9.18876955,0.53182589 L63.7980026,0.53182589 Z" id="path-2"></path>
        <filter x="-22.0%" y="-30.5%" width="144.0%" height="169.6%" filterUnits="objectBoundingBox" id="filter-3">
            <feMorphology radius="4" operator="dilate" in="SourceAlpha" result="shadowSpreadOuter1"></feMorphology>
            <feOffset dx="0" dy="2" in="shadowSpreadOuter1" result="shadowOffsetOuter1"></feOffset>
            <feGaussianBlur stdDeviation="3" in="shadowOffsetOuter1" result="shadowBlurOuter1"></feGaussianBlur>
            <feComposite in="shadowBlurOuter1" in2="SourceAlpha" operator="out" result="shadowBlurOuter1"></feComposite>
            <feColorMatrix values="0 0 0 0 0   0 0 0 0 0   0 0 0 0 0  0 0 0 0.04 0" type="matrix" in="shadowBlurOuter1"></feColorMatrix>
        </filter>
        <radialGradient cx="19.2474387%" cy="99.4651948%" fx="19.2474387%" fy="99.4651948%" r="108.959529%" id="radialGradient-4">
            <stop stop-color="#0099FF" offset="0%"></stop>
            <stop stop-color="#A033FF" offset="60.9753877%"></stop>
            <stop stop-color="#FF5280" offset="93.482299%"></stop>
            <stop stop-color="#FF7061" offset="100%"></stop>
        </radialGradient>
    </defs>
    <g id="Account-recovery-flow" stroke="none" stroke-width="1" fill="none" fill-rule="evenodd">
        <g id="code-input" transform="translate(-942.000000, -250.000000)">
            <g id="messenger-code" transform="translate(942.000000, 253.000000)">
                <g id="Group-2" transform="translate(33.295082, 11.180328)">
                    <g id="Combined-Shape-Copy-2">
                        <use fill="black" fill-opacity="1" filter="url(#filter-3)" xlink:href="#path-2"></use>
                        <path stroke="url(#linearGradient-1)" stroke-width="3" d="M63.7980026,-0.96817411 C66.7251482,-0.96817411 69.3751812,0.218286067 71.2934278,2.13653264 C73.2116744,4.05477922 74.3981345,6.70481219 74.3981345,9.63195779 L74.3981345,9.63195779 L74.3981345,27.8364424 C74.3981345,30.763588 73.2116744,33.413621 71.2934278,35.3318676 C69.3751812,37.2501142 66.7251482,38.4365743 63.7978899,38.4365743 L63.7978899,38.4365743 L55.3407129,38.4359386 L55.3410401,44.9584208 C55.3410401,45.7978561 55.0007917,46.5578222 54.4506845,47.1079294 C53.9005773,47.6580367 53.1406112,47.9982851 52.3011758,47.9982851 C51.6493799,47.9982851 51.0148433,47.788785 50.491193,47.4007019 L50.491193,47.4007019 L38.3944194,38.4358384 L9.18876955,38.4365743 C6.26162395,38.4365743 3.61159098,37.2501142 1.6933444,35.3318676 C-0.224902175,33.413621 -1.41136235,30.763588 -1.41136235,27.8364424 L-1.41136235,27.8364424 L-1.41136235,9.63195779 C-1.41136235,6.70481219 -0.224902175,4.05477922 1.6933444,2.13653264 C3.61159098,0.218286067 6.26162395,-0.96817411 9.18876955,-0.96817411 L9.18876955,-0.96817411 Z" fill="#FFFFFF" fill-rule="evenodd"></path>
                    </g>
                    <path d="M16.2034943,23.6210891 L15.6999699,20.6455692 L17.9910056,22.5548611 L19.3756975,20.1248532 L16.4804326,19.0586252 L19.3756975,18.0171932 L17.9910056,15.5871852 L15.6999699,17.4964772 L16.2034943,14.5209572 L13.1571721,14.5209572 L13.6858727,17.4964772 L11.3696608,15.5871852 L10.0101451,18.0171932 L12.90541,19.0834212 L10.0101451,20.1248532 L11.3696608,22.5548611 L13.6858727,20.6455692 L13.1571721,23.6210891 L16.2034943,23.6210891 Z M30.6120364,23.6210891 L30.1085121,20.6455692 L32.3995478,22.5548611 L33.7842397,20.1248532 L30.8889748,19.0586252 L33.7842397,18.0171932 L32.3995478,15.5871852 L30.1085121,17.4964772 L30.6120364,14.5209572 L27.5657143,14.5209572 L28.0944148,17.4964772 L25.7782029,15.5871852 L24.4186873,18.0171932 L27.3139521,19.0834212 L24.4186873,20.1248532 L25.7782029,22.5548611 L28.0944148,20.6455692 L27.5657143,23.6210891 L30.6120364,23.6210891 Z M44.3001515,23.6210891 L43.7966272,20.6455692 L46.0876629,22.5548611 L47.4723548,20.1248532 L44.5770899,19.0586252 L47.4723548,18.0171932 L46.0876629,15.5871852 L43.7966272,17.4964772 L44.3001515,14.5209572 L41.2538294,14.5209572 L41.7825299,17.4964772 L39.466318,15.5871852 L38.1068023,18.0171932 L41.0020672,19.0834212 L38.1068023,20.1248532 L39.466318,22.5548611 L41.7825299,20.6455692 L41.2538294,23.6210891 L44.3001515,23.6210891 Z M58.7086937,23.6210891 L58.2051694,20.6455692 L60.496205,22.5548611 L61.8808969,20.1248532 L58.9856321,19.0586252 L61.8808969,18.0171932 L60.496205,15.5871852 L58.2051694,17.4964772 L58.7086937,14.5209572 L55.6623715,14.5209572 L56.1910721,17.4964772 L53.8748602,15.5871852 L52.5153445,18.0171932 L55.4106094,19.0834212 L52.5153445,20.1248532 L53.8748602,22.5548611 L56.1910721,20.6455692 L55.6623715,23.6210891 L58.7086937,23.6210891 Z" id="****-copy-2" fill="#C7CDD2"></path>
                </g>
                <g id="Group-7-Copy" transform="translate(115.163934, 13.508197)">
                    <path d="M1.38845333,23.832956 C4.12263928,26.6084933 5.04133045,26.6158639 7.81664114,23.8813699 C5.04133045,26.6158639 5.03491801,27.5356161 7.7680439,30.3079728 C5.03491801,27.5356161 4.11463661,27.5261251 1.34091618,30.2622093 C4.11463664,27.5255949 4.12263928,26.6084933 1.38845333,23.832956 Z" id="Path-Copy-15" fill="#DFE2E8" transform="translate(4.578779, 27.070464) rotate(-315.000000) translate(-4.578779, -27.070464) "></path>
                    <path d="M13.8983833,13.4577366 L11.8136258,14.2550737 L11.8136258,15.3181898 C11.814398,16.6688421 12.649662,17.8723956 13.8983833,18.3221707 C15.1471045,17.8723956 15.9823686,16.6688421 15.9831408,15.3181898 L15.9831408,14.2550737 L13.8983833,13.4577366 Z" id="Path-Copy-5" stroke="#DFE2E8" stroke-width="0.620463539"></path>
                    <path d="M8.00280436,37.0962221 C8.19470099,37.0962221 8.35026394,37.2455211 8.35026394,37.4420825 L8.34950645,38.4852221 L9.39424185,38.4860604 C9.5613786,38.4860604 9.70082542,38.6094601 9.73307561,38.7651061 L9.74010227,38.83352 C9.74010227,39.0254166 9.59080323,39.1809796 9.39424185,39.1809796 L8.34950645,39.1802221 L8.35026394,40.2249575 C8.35026394,40.3920943 8.22686426,40.5315411 8.07121828,40.5637913 L8.00280436,40.5708179 C7.81090773,40.5708179 7.65534478,40.4215189 7.65534478,40.2249575 L7.65450645,39.1802221 L6.61136687,39.1809796 C6.44423012,39.1809796 6.3047833,39.0575799 6.27253311,38.9019339 L6.26550645,38.83352 C6.26550645,38.6416234 6.41480549,38.4860604 6.61136687,38.4860604 L7.65450645,38.4852221 L7.65534478,37.4420825 C7.65534478,37.2749458 7.77874446,37.135499 7.93439043,37.1032488 L8.00280436,37.0962221 Z" id="Combined-Shape-Copy-6" fill="#DFE2E8" transform="translate(8.002804, 38.833520) rotate(39.000000) translate(-8.002804, -38.833520) "></path>
                    <path d="M4.52820854,0.960425614 C4.72010517,0.960425614 4.87566812,1.10972465 4.87566812,1.30628604 L4.87491063,2.34942561 L5.91964603,2.35026394 C6.08678279,2.35026394 6.2262296,2.47366363 6.2584798,2.6293096 L6.26550645,2.69772352 C6.26550645,2.88962015 6.11620741,3.0451831 5.91964603,3.0451831 L4.87491063,3.04442561 L4.87566812,4.08916101 C4.87566812,4.25629777 4.75226844,4.39574458 4.59662247,4.42799478 L4.52820854,4.43502143 C4.33631191,4.43502143 4.18074896,4.28572239 4.18074896,4.08916101 L4.17991063,3.04442561 L3.13677106,3.0451831 C2.9696343,3.0451831 2.83018748,2.92178342 2.79793729,2.76613745 L2.79091063,2.69772352 C2.79091063,2.50582689 2.94020967,2.35026394 3.13677106,2.35026394 L4.17991063,2.34942561 L4.18074896,1.30628604 C4.18074896,1.13914928 4.30414865,0.999702462 4.45979462,0.967452269 L4.52820854,0.960425614 Z" id="Combined-Shape-Copy-7" fill="#DFE2E8" transform="translate(4.528209, 2.697724) rotate(39.000000) translate(-4.528209, -2.697724) "></path>
                    <circle id="Oval-2-Copy-2" stroke="#E0E4E9" stroke-width="0.694919163" transform="translate(22.515694, 28.464886) scale(-1, 1) rotate(-37.000000) translate(-22.515694, -28.464886) " cx="22.515694" cy="28.4648856" r="1.04237875"></circle>
                    <circle id="Oval-2-Copy-2" stroke="#E0E4E9" stroke-width="0.694919163" transform="translate(22.515694, 3.464886) scale(-1, 1) rotate(-37.000000) translate(-22.515694, -3.464886) " cx="22.515694" cy="3.46488561" r="1.04237875"></circle>
                </g>
                <g id="Group-7-Copy" transform="translate(12.868852, 31.508197) scale(-1, 1) translate(-12.868852, -31.508197) translate(0.868852, 7.508197)">
                    <path d="M1.38845333,29.832956 C4.12263928,32.6084933 5.04133045,32.6158639 7.81664114,29.8813699 C5.04133045,32.6158639 5.03491801,33.5356161 7.7680439,36.3079728 C5.03491801,33.5356161 4.11463661,33.5261251 1.34091618,36.2622093 C4.11463664,33.5255949 4.12263928,32.6084933 1.38845333,29.832956 Z" id="Path-Copy-15" fill="#DFE2E8" transform="translate(4.578779, 33.070464) rotate(-315.000000) translate(-4.578779, -33.070464) "></path>
                    <path d="M13.8983833,19.4577366 L11.8136258,20.2550737 L11.8136258,21.3181898 C11.814398,22.6688421 12.649662,23.8723956 13.8983833,24.3221707 C15.1471045,23.8723956 15.9823686,22.6688421 15.9831408,21.3181898 L15.9831408,20.2550737 L13.8983833,19.4577366 Z" id="Path-Copy-5" stroke="#DFE2E8" stroke-width="0.620463539"></path>
                    <path d="M10.4237875,0 L8.33902996,0.797337116 L8.33902996,1.86045327 C8.33980214,3.21110554 9.17506618,4.41465905 10.4237875,4.86443414 C11.6725087,4.41465905 12.5077728,3.21110554 12.5085449,1.86045327 L12.5085449,0.797337116 L10.4237875,0 Z" id="Path-Copy-7" stroke="#DFE2E8" stroke-width="0.620463539"></path>
                    <path d="M8.00280436,43.0962221 C8.19470099,43.0962221 8.35026394,43.2455211 8.35026394,43.4420825 L8.34950645,44.4852221 L9.39424185,44.4860604 C9.5613786,44.4860604 9.70082542,44.6094601 9.73307561,44.7651061 L9.74010227,44.83352 C9.74010227,45.0254166 9.59080323,45.1809796 9.39424185,45.1809796 L8.34950645,45.1802221 L8.35026394,46.2249575 C8.35026394,46.3920943 8.22686426,46.5315411 8.07121828,46.5637913 L8.00280436,46.5708179 C7.81090773,46.5708179 7.65534478,46.4215189 7.65534478,46.2249575 L7.65450645,45.1802221 L6.61136687,45.1809796 C6.44423012,45.1809796 6.3047833,45.0575799 6.27253311,44.9019339 L6.26550645,44.83352 C6.26550645,44.6416234 6.41480549,44.4860604 6.61136687,44.4860604 L7.65450645,44.4852221 L7.65534478,43.4420825 C7.65534478,43.2749458 7.77874446,43.135499 7.93439043,43.1032488 L8.00280436,43.0962221 Z" id="Combined-Shape-Copy-6" fill="#DFE2E8" transform="translate(8.002804, 44.833520) rotate(39.000000) translate(-8.002804, -44.833520) "></path>
                    <path d="M4.52820854,6.96042561 C4.72010517,6.96042561 4.87566812,7.10972465 4.87566812,7.30628604 L4.87491063,8.34942561 L5.91964603,8.35026394 C6.08678279,8.35026394 6.2262296,8.47366363 6.2584798,8.6293096 L6.26550645,8.69772352 C6.26550645,8.88962015 6.11620741,9.0451831 5.91964603,9.0451831 L4.87491063,9.04442561 L4.87566812,10.089161 C4.87566812,10.2562978 4.75226844,10.3957446 4.59662247,10.4279948 L4.52820854,10.4350214 C4.33631191,10.4350214 4.18074896,10.2857224 4.18074896,10.089161 L4.17991063,9.04442561 L3.13677106,9.0451831 C2.9696343,9.0451831 2.83018748,8.92178342 2.79793729,8.76613745 L2.79091063,8.69772352 C2.79091063,8.50582689 2.94020967,8.35026394 3.13677106,8.35026394 L4.17991063,8.34942561 L4.18074896,7.30628604 C4.18074896,7.13914928 4.30414865,6.99970246 4.45979462,6.96745227 L4.52820854,6.96042561 Z" id="Combined-Shape-Copy-7" fill="#DFE2E8" transform="translate(4.528209, 8.697724) rotate(39.000000) translate(-4.528209, -8.697724) "></path>
                    <circle id="Oval-2-Copy-2" stroke="#E0E4E9" stroke-width="0.694919163" transform="translate(22.515694, 29.464886) scale(-1, 1) rotate(-37.000000) translate(-22.515694, -29.464886) " cx="22.515694" cy="29.4648856" r="1.04237875"></circle>
                </g>
                <g id="Group-5-Copy" transform="translate(97.000000, 0.000000)">
                    <path d="M15,-1.5 C19.6643909,-1.5 23.7934923,0.230975678 26.7530494,3.10175135 C29.7002247,5.96051659 31.5,9.95577632 31.5,14.5500268 C31.5,19.1442773 29.7002247,23.139537 26.7530494,25.9983023 C23.7934923,28.8690779 19.6643909,30.6000536 15,30.6000536 C13.381483,30.6000536 11.8273069,30.3904752 10.3640793,29.9979707 L10.3640793,29.9979707 L7.48528356,31.2687935 C6.60907727,31.6555941 5.6764495,31.5373863 4.95555136,31.083148 C4.2347674,30.6289816 3.7255551,29.8388477 3.69619251,28.8813557 L3.69619251,28.8813557 L3.61859523,26.3468294 C0.451098355,23.4688308 -1.5,19.3343485 -1.5,14.5500268 C-1.5,9.95577632 0.299775323,5.96051659 3.24695056,3.10175135 C6.20650765,0.230975678 10.3356091,-1.5 15,-1.5 Z" id="Path" stroke="#FFFFFF" stroke-width="3" fill="url(#radialGradient-4)"></path>
                    <path d="M5.12058374,17.9918693 L9.7087915,11.5767053 C10.438625,10.5561486 12.0015052,10.3020418 13.0965835,11.0258194 L16.7458136,13.4378517 C17.0806317,13.6591972 17.5413112,13.6580134 17.8747236,13.4350161 L22.803185,10.1386481 C23.4610129,9.69871026 24.3196755,10.3924796 23.8794575,11.0081448 L19.2912497,17.4233639 C18.5613537,18.4438656 16.9984735,18.6980274 15.9034577,17.9741947 L12.2541339,15.5621074 C11.919347,15.340817 11.4586363,15.3420008 11.1252552,15.5649981 L6.19676252,18.861366 C5.53896581,19.3012764 4.68027199,18.607507 5.12058374,17.9918693 Z" id="Path" fill="#FFFFFF"></path>
                </g>
            </g>
        </g>
    </g>
</svg>