<?xml version="1.0" encoding="UTF-8"?>
<svg width="179px" height="81px" viewBox="0 0 179 81" version="1.1" xmlns="http://www.w3.org/2000/svg" xmlns:xlink="http://www.w3.org/1999/xlink">
    <title>messenger-success</title>
    <defs>
        <radialGradient cx="19.2474387%" cy="99.4651948%" fx="19.2474387%" fy="99.4651948%" r="108.959529%" id="radialGradient-1">
            <stop stop-color="#0099FF" offset="0%"></stop>
            <stop stop-color="#A033FF" offset="60.9753877%"></stop>
            <stop stop-color="#FF5280" offset="93.482299%"></stop>
            <stop stop-color="#FF7061" offset="100%"></stop>
        </radialGradient>
    </defs>
    <g id="Linking-flow" stroke="none" stroke-width="1" fill="none" fill-rule="evenodd">
        <g id="link-success" transform="translate(-924.000000, -287.000000)">
            <g id="messenger-success" transform="translate(924.000000, 287.000000)">
                <g>
                    <g id="Group" transform="translate(55.903614, 3.855422)">
                        <g id="iconfinder_Asset_1_2001677" transform="translate(0.000000, 8.674699)" fill="#FFFFFF" fill-rule="nonzero" stroke="#E0E4E9" stroke-width="0.963855422">
                            <rect id="Rectangle" x="0" y="0" width="63.3292896" height="63.3292896" rx="15.4216867"></rect>
                        </g>
                        <g id="Group-2" transform="translate(40.481928, 0.000000)">
                            <circle id="Oval" fill="#FFFFFF" cx="13.4939759" cy="13.4939759" r="13.4939759"></circle>
                            <g id="Group" transform="translate(1.927711, 1.927711)" fill="#41BE28" fill-rule="nonzero">
                                <g id="check-circle-solid">
                                    <path d="M11.5662651,0.963744684 C5.71071588,0.963744684 0.963855378,5.71071588 0.963855378,11.5662651 C0.963855378,17.4218142 5.71071588,22.1686747 11.5662651,22.1686747 C17.4218142,22.1686747 22.1687854,17.4218142 22.1687854,11.5662651 C22.1815622,8.75040015 21.0686647,6.04614143 19.0775267,4.05500341 C17.0863887,2.06386538 14.38213,0.950967921 11.5662651,0.963744684 Z M17.060241,8.86746987 L10.313253,15.6144578 C10.1398296,15.8034718 9.89507316,15.9110731 9.63855421,15.9110731 C9.38203526,15.9110731 9.13727886,15.8034718 8.96385541,15.6144578 L6.12048191,12.7710843 C5.76241108,12.4344509 5.68262133,11.8958701 5.92771082,11.4698795 C6.09582162,11.2329506 6.36182902,11.0844848 6.65173712,11.065781 C6.94164521,11.0470773 7.22452484,11.1601311 7.42168673,11.373494 L9.63855421,13.5903615 L15.7108434,7.51807227 C16.0945738,7.23027446 16.6315324,7.26843493 16.9707054,7.60760791 C17.3098783,7.94678088 17.3480388,8.48373946 17.060241,8.86746987 Z" id="Shape"></path>
                                </g>
                            </g>
                        </g>
                    </g>
                    <g id="Group-2" transform="translate(21.409639, 40.000000) scale(-1, 1) translate(-21.409639, -40.000000) translate(0.409639, 0.000000)">
                        <path d="M18.4249504,52.5771287 C22.9418468,57.1595669 24.4672158,57.1641597 29.0981589,52.6040232 C24.4672158,57.1641597 24.4489296,58.6902639 28.9640923,63.2674336 C24.4489296,58.6902639 22.9209378,58.6821662 18.292622,63.244928 C22.9209422,58.6812867 22.9418468,57.1595669 18.4249504,52.5771287 Z" id="Path-Copy-15" fill="#C7CDD2" transform="translate(23.695390, 57.922281) rotate(-315.000000) translate(-23.695390, -57.922281) "></path>
                        <path d="M2.72184597,2.40059705 C7.2387424,6.98303522 8.76411139,6.98762803 13.3950545,2.42749158 C8.76411139,6.98762803 8.74582526,8.51373227 13.2609879,13.0909019 C8.74582526,8.51373227 7.2178334,8.50563455 2.58951764,13.0683963 C7.21783785,8.50475498 7.2387424,6.98303522 2.72184597,2.40059705 Z" id="Path-Copy-15" fill="#C7CDD2" transform="translate(7.992286, 7.745749) rotate(-315.000000) translate(-7.992286, -7.745749) "></path>
                        <path d="M36.4295137,28.8706227 C36.8273957,28.8706227 37.1499428,29.1953439 37.1499428,29.59315 L37.1493679,31.7206227 L39.314546,31.7211525 C39.6775926,31.7211525 39.9776283,31.9869429 40.0251131,32.3365086 L40.0316595,32.433785 C40.0316595,32.827361 39.7221001,33.1464174 39.314546,33.1464174 L37.1493679,33.1456227 L37.1499428,35.2744199 C37.1499428,35.6402074 36.8812446,35.9425082 36.5278544,35.9903515 L36.4295137,35.9969473 C36.0316316,35.9969473 35.7090845,35.6722261 35.7090845,35.2744199 L35.7083679,33.1456227 L33.5444813,33.1464174 C33.1814347,33.1464174 32.8813991,32.8806271 32.8339143,32.5310614 L32.8273679,32.433785 C32.8273679,32.0402089 33.1369273,31.7211525 33.5444813,31.7211525 L35.7083679,31.7206227 L35.7090845,29.59315 C35.7090845,29.2273626 35.9777828,28.9250618 36.331173,28.8772185 L36.4295137,28.8706227 Z" id="Combined-Shape-Copy-7" fill="#C7CDD2" transform="translate(36.429514, 32.433785) rotate(39.000000) translate(-36.429514, -32.433785) "></path>
                        <ellipse id="Oval-2-Copy-2" stroke="#C7CDD2" stroke-width="0.963855422" transform="translate(32.717647, 13.663908) scale(-1, 1) rotate(-37.000000) translate(-32.717647, -13.663908) " cx="32.7176471" cy="13.6639085" rx="2.27595814" ry="2.27058556"></ellipse>
                        <path d="M10.5074312,35.6142787 L14.121889,36.9308376 L14.1218891,38.5308559 C14.1211795,39.7130244 13.7363076,40.8304997 13.0655106,41.7510413 C12.4369254,42.6136552 11.5575701,43.3033464 10.507401,43.7136753 C9.45717699,43.303256 8.57789576,42.6135987 7.94935175,41.7510413 C7.27855474,40.8304997 6.89368288,39.7130244 6.89297335,38.5312899 L6.89297335,38.5312899 L6.89297335,36.9308376 L10.5074312,35.6142787 Z" id="Path-Copy-8" stroke="#C7CDD2" stroke-width="1.44578313"></path>
                        <ellipse id="Oval-2-Copy-4" stroke="#C7CDD2" stroke-width="0.963855422" transform="translate(11.372119, 76.910039) scale(-1, 1) rotate(-37.000000) translate(-11.372119, -76.910039) " cx="11.372119" cy="76.9100394" rx="2.27598975" ry="2.27061717"></ellipse>
                    </g>
                    <g id="Group-2" transform="translate(136.867470, 0.000000)">
                        <path d="M18.4249504,52.5771287 C22.9418468,57.1595669 24.4672158,57.1641597 29.0981589,52.6040232 C24.4672158,57.1641597 24.4489296,58.6902639 28.9640923,63.2674336 C24.4489296,58.6902639 22.9209378,58.6821662 18.292622,63.244928 C22.9209422,58.6812867 22.9418468,57.1595669 18.4249504,52.5771287 Z" id="Path-Copy-15" fill="#C7CDD2" transform="translate(23.695390, 57.922281) rotate(-315.000000) translate(-23.695390, -57.922281) "></path>
                        <path d="M2.72184597,2.40059705 C7.2387424,6.98303522 8.76411139,6.98762803 13.3950545,2.42749158 C8.76411139,6.98762803 8.74582526,8.51373227 13.2609879,13.0909019 C8.74582526,8.51373227 7.2178334,8.50563455 2.58951764,13.0683963 C7.21783785,8.50475498 7.2387424,6.98303522 2.72184597,2.40059705 Z" id="Path-Copy-15" fill="#C7CDD2" transform="translate(7.992286, 7.745749) rotate(-315.000000) translate(-7.992286, -7.745749) "></path>
                        <path d="M36.4295137,28.8706227 C36.8273957,28.8706227 37.1499428,29.1953439 37.1499428,29.59315 L37.1493679,31.7206227 L39.314546,31.7211525 C39.6775926,31.7211525 39.9776283,31.9869429 40.0251131,32.3365086 L40.0316595,32.433785 C40.0316595,32.827361 39.7221001,33.1464174 39.314546,33.1464174 L37.1493679,33.1456227 L37.1499428,35.2744199 C37.1499428,35.6402074 36.8812446,35.9425082 36.5278544,35.9903515 L36.4295137,35.9969473 C36.0316316,35.9969473 35.7090845,35.6722261 35.7090845,35.2744199 L35.7083679,33.1456227 L33.5444813,33.1464174 C33.1814347,33.1464174 32.8813991,32.8806271 32.8339143,32.5310614 L32.8273679,32.433785 C32.8273679,32.0402089 33.1369273,31.7211525 33.5444813,31.7211525 L35.7083679,31.7206227 L35.7090845,29.59315 C35.7090845,29.2273626 35.9777828,28.9250618 36.331173,28.8772185 L36.4295137,28.8706227 Z" id="Combined-Shape-Copy-7" fill="#C7CDD2" transform="translate(36.429514, 32.433785) rotate(39.000000) translate(-36.429514, -32.433785) "></path>
                        <ellipse id="Oval-2-Copy-2" stroke="#C7CDD2" stroke-width="0.963855422" transform="translate(32.717647, 13.663908) scale(-1, 1) rotate(-37.000000) translate(-32.717647, -13.663908) " cx="32.7176471" cy="13.6639085" rx="2.27595814" ry="2.27058556"></ellipse>
                        <path d="M10.5074312,35.6142787 L14.121889,36.9308376 L14.1218891,38.5308559 C14.1211795,39.7130244 13.7363076,40.8304997 13.0655106,41.7510413 C12.4369254,42.6136552 11.5575701,43.3033464 10.507401,43.7136753 C9.45717699,43.303256 8.57789576,42.6135987 7.94935175,41.7510413 C7.27855474,40.8304997 6.89368288,39.7130244 6.89297335,38.5312899 L6.89297335,38.5312899 L6.89297335,36.9308376 L10.5074312,35.6142787 Z" id="Path-Copy-8" stroke="#C7CDD2" stroke-width="1.44578313"></path>
                        <ellipse id="Oval-2-Copy-4" stroke="#C7CDD2" stroke-width="0.963855422" transform="translate(11.372119, 76.910039) scale(-1, 1) rotate(-37.000000) translate(-11.372119, -76.910039) " cx="11.372119" cy="76.9100394" rx="2.27598975" ry="2.27061717"></ellipse>
                    </g>
                </g>
                <g id="Group-5" transform="translate(68.000000, 25.000000)">
                    <path d="M19.5,0 C8.515065,0 0,8.04649482 0,18.9150348 C0,24.5999973 2.32986,29.5124464 6.124092,32.9055306 C6.442605,33.1906211 6.634875,33.5899819 6.64794,34.0174227 L6.754137,37.4860891 C6.788067,38.5925211 7.930923,39.3124624 8.943363,38.8655216 L12.81384,37.1569285 C13.141947,37.0122382 13.5096,36.9853281 13.855335,37.0804883 C15.63393,37.5695492 17.526912,37.8300697 19.5,37.8300697 C30.484935,37.8300697 39,29.7835749 39,18.9150348 C39,8.04649482 30.484935,0 19.5,0 Z" id="Path" fill="url(#radialGradient-1)"></path>
                    <path d="M8.15231631,23.6558258 L13.9479472,15.1022738 C14.8698421,13.7415315 16.8440066,13.4027224 18.2272634,14.3677592 L22.8368172,17.5838023 C23.2597453,17.8789296 23.8416563,17.8773512 24.2628087,17.5800214 L30.4882337,13.1848642 C31.3191742,12.5982803 32.4038007,13.5233061 31.8477358,14.3441931 L26.0521049,22.8978185 C25.130131,24.2584874 23.1559665,24.5973699 21.7727887,23.6322596 L17.1631165,20.4161432 C16.7402278,20.1210893 16.1582775,20.1226677 15.7371645,20.4199975 L9.51170002,24.8151547 C8.68079892,25.4017018 7.59613304,24.476676 8.15231631,23.6558258 Z" id="Path" fill="#FFFFFF"></path>
                </g>
            </g>
        </g>
    </g>
</svg>