<?xml version="1.0" encoding="UTF-8"?>
<svg width="25px" height="24px" viewBox="0 0 25 24" version="1.1" xmlns="http://www.w3.org/2000/svg" xmlns:xlink="http://www.w3.org/1999/xlink">
    <title>messenger-chat-v0.0.1</title>
    <defs>
        <linearGradient x1="35.9939843%" y1="123.25454%" x2="100%" y2="4.44214876%" id="linearGradient-1">
            <stop stop-color="#769FFC" offset="0%"></stop>
            <stop stop-color="#7764F9" offset="100%"></stop>
        </linearGradient>
        <path d="M21.5909091,0 C23.4704545,0 25,1.52954545 25,3.40909091 L25,12.5 C25,14.3795455 23.4704545,15.9090909 21.5909091,15.9090909 L21.0227273,15.9090909 L21.0227273,17.0454545 C21.0227273,18.8578734 19.6004841,20.3448458 17.8136232,20.4487464 L17.6136364,20.4545455 L5.81931818,20.4545455 L2.91022727,23.3647727 C2.58295455,23.6909091 2.14772727,23.8636364 1.70340909,23.8636364 C1.48522727,23.8636364 1.2625,23.8204545 1.05227273,23.7329545 C0.414772727,23.4704545 0,22.8488636 0,22.1590909 L0,22.1590909 L0,8.52272727 C0,6.64318182 1.52954545,4.54545455 3.40909091,4.54545455 L3.40909091,4.54545455 L4.54545455,4.54545455 L4.54545455,3.40909091 C4.54545455,1.52954545 6.075,0 7.95454545,0 L21.5909091,0 Z M21.5909091,2.27272727 L7.95454545,2.27272727 C7.32840909,2.27272727 6.81818182,2.78295455 6.81818182,3.40909091 L6.81818182,4.54545455 L17.6136364,4.54545455 C19.4260552,4.54545455 20.9130276,5.9676977 21.0169282,7.7545586 L21.0227273,7.95454545 L21.0227273,13.6363636 L21.5909091,13.6363636 C22.2170455,13.6363636 22.7272727,13.1261364 22.7272727,12.5 L22.7272727,3.40909091 C22.7272727,2.78295455 22.2170455,2.27272727 21.5909091,2.27272727 Z M3.40909091,6.81818182 C2.78295455,6.81818182 2.27272727,7.32840909 2.27272727,7.95454545 L2.27272727,20.7875 L4.71136364,18.3477273 C4.81818182,18.2420455 4.9625,18.1818182 5.11363636,18.1818182 L17.6136364,18.1818182 C18.2397727,18.1818182 18.75,17.6715909 18.75,17.0454545 L18.75,7.95454545 C18.75,7.32840909 18.2397727,6.81818182 17.6136364,6.81818182 L3.40909091,6.81818182 Z M15.9090909,12.5 C15.9090909,13.1272727 15.4,13.6363636 14.7727273,13.6363636 C14.1443182,13.6363636 13.6363636,13.1272727 13.6363636,12.5 C13.6363636,11.8727273 14.1443182,11.3636364 14.7727273,11.3636364 C15.4,11.3636364 15.9090909,11.8727273 15.9090909,12.5 L15.9090909,12.5 Z M11.6477273,12.5 C11.6477273,13.1272727 11.1386364,13.6363636 10.5113636,13.6363636 C9.88409091,13.6363636 9.375,13.1272727 9.375,12.5 C9.375,11.8727273 9.88409091,11.3636364 10.5113636,11.3636364 C11.1386364,11.3636364 11.6477273,11.8727273 11.6477273,12.5 L11.6477273,12.5 Z M6.25,13.6363636 C5.93977273,13.6363636 5.65795455,13.5113636 5.45227273,13.3090909 C5.24318182,13.1034091 5.11363636,12.8170455 5.11363636,12.5 C5.11363636,11.8727273 5.62272727,11.3636364 6.25,11.3636364 C6.87840909,11.3636364 7.38636364,11.8727273 7.38636364,12.5 C7.38636364,13.1272727 6.87840909,13.6363636 6.25,13.6363636 L6.25,13.6363636 Z" id="path-2"></path>
    </defs>
    <g id="Linking-flow" stroke="none" stroke-width="1" fill="none" fill-rule="evenodd">
        <g id="messenger-qr" transform="translate(-907.000000, -498.000000)">
            <g id="prefix__newcomment-a" transform="translate(907.000000, 498.000000)">
                <use fill="#1D2228" xlink:href="#path-2"></use>
                <use fill="url(#linearGradient-1)" xlink:href="#path-2"></use>
            </g>
        </g>
    </g>
</svg>