<?xml version="1.0" encoding="UTF-8"?>
<svg width="87px" height="96px" viewBox="0 0 87 96" version="1.1" xmlns="http://www.w3.org/2000/svg" xmlns:xlink="http://www.w3.org/1999/xlink">
    <!-- Generator: Sketch 55.1 (78136) - https://sketchapp.com -->
    <title>Group 7 Copy</title>
    <desc>Created with Sketch.</desc>
    <g id="Specs-new--download" stroke="none" stroke-width="1" fill="none" fill-rule="evenodd">
        <g id="Group-7-Copy">
            <path d="M42.9665839,4 C42.047852,4 41.131658,4.32016329 40.4032711,4.97306172 L40.4032711,4.97306172 C27.0698149,16.8543045 14.1068969,19.3980102 7.56495049,19.8497589 L7.56495049,19.8497589 C5.49230486,19.9964306 4,21.7414043 4,23.7989982 L4,23.7989982 C4,32.3604327 5.07862171,39.8641549 6.8441774,46.4576747 L6.8441774,46.4576747 L6.83571762,46.4576747 C6.8441774,46.4920378 6.85602108,46.5196959 6.86363488,46.554059 L6.86363488,46.554059 C7.09712476,47.4106215 7.37460548,48.1984579 7.62755285,49.0248479 L7.62755285,49.0248479 C7.98624744,50.1973831 8.34832594,51.3674039 8.74931942,52.4795942 L8.74931942,52.4795942 C9.06063926,53.331966 9.39310853,54.1466224 9.72811575,54.9654693 L9.72811575,54.9654693 C10.1401069,55.9846278 10.5656338,56.9803189 11.0089262,57.9458375 L11.0089262,57.9458375 C11.356623,58.6900914 11.7068578,59.4276403 12.0689363,60.1417218 L12.0689363,60.1417218 C12.5841368,61.1566897 13.1171029,62.1263989 13.6627585,63.0785075 L13.6627585,63.0785075 C13.990152,63.643403 14.3023178,64.2250609 14.637325,64.7698413 L14.637325,64.7698413 C15.5171419,66.2063855 16.4214922,67.5809085 17.3520678,68.8657523 L17.3520678,68.8657523 C17.3605275,68.877486 17.3681413,68.8925723 17.3757551,68.904306 L17.3757551,68.904306 C18.3858526,70.2972677 19.4170996,71.5829496 20.4618822,72.8066103 L20.4618822,72.8066103 C20.6099283,72.980102 20.7622043,73.142698 20.9136343,73.3128371 L20.9136343,73.3128371 C21.8332122,74.3697112 22.7527901,75.3620498 23.6799818,76.2965578 L23.6799818,76.2965578 C23.8051865,76.4231145 23.9286993,76.5471568 24.0581339,76.6711991 L24.0581339,76.6711991 C31.6364031,84.1900076 39.0632423,87.767958 41.6544723,88.7485629 L41.6544723,88.7485629 C42.0943808,88.9145114 42.5579766,89 43.0215724,89 L43.0215724,89 L43.0368,89 L43.0368,88.9111589 C43.4699407,88.9078064 43.9022353,88.8340515 44.3150725,88.6873798 L44.3150725,88.6873798 C49.1887507,86.8996618 71.2230887,76.0568544 79.100834,46.4610272 L79.100834,46.4610272 L79.17951,46.4610272 C80.9053047,39.9697585 81.9678528,32.6060029 82,24.2071645 L82,24.2071645 L82,23.730272 C81.962777,21.7087175 80.4789319,20.0098406 78.4384334,19.8656833 L78.4384334,19.8656833 C78.4350495,19.8656833 78.4274357,19.8614926 78.4189759,19.8614926 L78.4189759,19.8614926 C78.3995184,19.8614926 78.3885207,19.8497589 78.3682173,19.8497589 L78.3682173,19.8497589 C76.7363261,19.7340978 74.6983655,19.4910419 72.356699,19.004092 L72.356699,19.004092 L72.3448553,19.004092 C71.2180128,18.7694174 70.0184163,18.4718834 68.7646772,18.1131664 L68.7646772,18.1131664 C68.6394725,18.0779652 68.5108838,18.036059 68.3822952,17.9975053 L68.3822952,17.9975053 C67.2562987,17.6647702 66.0753137,17.270852 64.8638735,16.8191033 L64.8638735,16.8191033 C64.6024664,16.7235572 64.3419052,16.6187917 64.0771141,16.519055 L64.0771141,16.519055 C62.9511177,16.0782019 61.7904361,15.5770039 60.6052212,15.0204897 L60.6052212,15.0204897 C60.2346829,14.846998 59.8607607,14.6617727 59.4834546,14.4773854 L59.4834546,14.4773854 C58.3608421,13.9166806 57.2120042,13.2956309 56.0513227,12.6159125 L56.0513227,12.6159125 C55.5987245,12.3535798 55.1461264,12.0795133 54.6901444,11.7979037 L54.6901444,11.7979037 C53.5649939,11.1030991 52.4229238,10.3429208 51.274086,9.52407387 L51.274086,9.52407387 C50.7707292,9.16116627 50.2648344,8.79071556 49.7580937,8.40517862 L49.7580937,8.40517862 C48.6320973,7.5519686 47.498487,6.63254681 46.3598009,5.64858949 L46.3598009,5.64858949 C46.0950098,5.42061982 45.8310647,5.21276512 45.5654277,4.97641421 L45.5654277,4.97641421 C45.1915055,4.6411647 44.7676706,4.40062317 44.3193024,4.2430559 L44.3193024,4.2430559 C44.2880012,4.23216029 44.2524701,4.23551278 44.221169,4.22377905 L44.221169,4.22377905 C43.8354031,4.09722236 43.4428694,4.01173373 43.0368,4.00754311 L43.0368,4.00754311 L43.0368,4.01173373 C43.0139586,4.01173373 42.9902713,4 42.9665839,4 Z" id="Fill-1-Copy-8" fill="#FFFFFF"></path>
            <g id="shield-copy" fill="#359BFA">
                <path d="M46.1158137,1.09934278 C60.9257853,14.4869915 75.3207665,17.350497 82.5874222,17.8588887 C84.8828381,18.0240074 86.5427999,19.9880506 86.5384771,22.3040574 C86.5384771,75.281082 51.3896506,92.9574711 44.7670947,95.4212156 C44.2915848,95.5950247 43.790138,95.6862745 43.2930141,95.6862745 C42.7785988,95.6862745 42.2598607,95.5906795 41.7757052,95.4038347 C35.1488265,92.8575308 0,75.072511 0,22.3084026 C0,19.9923959 1.65563898,18.0240074 3.95537772,17.8588887 C11.2220334,17.350497 25.6170146,14.4869915 40.4226634,1.09934278 C41.2353531,0.364999185 42.2512151,0 43.2714,0 C44.2915848,0 45.3074469,0.364999185 46.1158137,1.09934278 Z M43.3146281,86.6655804 C56.4862521,81.3079137 76.5441238,62.7885503 77.8280005,26.0713704 C69.4201211,24.8373255 56.5554172,21.061322 43.2714,10.0939656 C29.9873828,21.0569768 17.1313245,24.8329803 8.71047662,26.0713704 C9.72201584,53.5810114 21.8993918,77.7578621 43.3146281,86.6655804 Z" id="Fill-7"></path>
                <path d="M82.5891411,17.8520628 C84.8835584,18.0171988 86.5427981,19.9814471 86.5384771,22.2976958 C86.5384771,31.9364191 85.3545405,40.3713884 83.4101191,47.7938138 L43.3291117,47.7938138 L43.3291117,0 C44.3358899,0.00869136457 45.3340263,0.365037312 46.1333995,1.09076625 C60.9369281,14.4798134 75.3256468,17.343618 82.5891411,17.8520628 Z M41.7934509,95.4038052 C36.3793174,93.3222233 11.9357794,81.0282882 3.18156197,47.7925101 L43.3273834,47.7925101 L43.3273834,95.6862745 L43.3100996,95.6862745 C42.7959082,95.6862745 42.2817167,95.5906695 41.7934509,95.4038052 Z" id="Fill-4"></path>
            </g>
        </g>
    </g>
</svg>