<?xml version="1.0" encoding="utf-8"?>
<!-- Generator: Adobe Illustrator 23.0.2, SVG Export Plug-In . SVG Version: 6.00 Build 0)  -->
<svg version="1.1" id="Layer_1" xmlns="http://www.w3.org/2000/svg" xmlns:xlink="http://www.w3.org/1999/xlink" x="0px" y="0px"
	 viewBox="0 0 110 80" style="enable-background:new 0 0 110 80;" xml:space="preserve">
<style type="text/css">
	.st0{fill:none;}
	.st1{fill:none;stroke:#DBE6ED;stroke-width:0.5561;stroke-linecap:round;}
	.st2{fill:#EAF0F2;}
	.st3{opacity:0.4;fill:#B1C6D2;enable-background:new    ;}
	.st4{fill:#FFD871;}
	.st5{fill:#FFFFFF;}
	.st6{fill:url(#SVGID_1_);}
	.st7{fill:url(#SVGID_2_);}
	.st8{fill:#89A5AF;}
</style>
<g>
	<g transform="translate(-471.000000, -142.000000)">
		<g transform="translate(437.000000, 137.000000)">
			<g id="Group-2">
				<g id="account-secure-copy">
					<rect id="Rectangle-path" x="33.9" y="5.2" class="st0" width="110.2" height="79.8"/>
					<path id="Shape" class="st1" d="M71.5,80.6h1.9"/>
					<path class="st1" d="M75.3,80.6h24.6"/>
					<path class="st1" d="M101.9,80.6h1.7"/>
					<path class="st2" d="M102.9,16.8c-5.5-1.4-10.6-4-15-7.6c-4.4,3.6-9.5,6.2-14.9,7.6c-4.5,1.1-9.1,1.4-13.6,0.9
						c0.7,9.6,1.3,19.1,1.9,28.6c1,15.8,11.6,29.3,26.8,34.1c15.1-4.9,25.6-18.4,26.8-34.1c0.7-9.6,1.3-19.1,1.9-28.6
						C112,18.2,107.4,17.9,102.9,16.8z"/>
					<path class="st3" d="M83.7,70.8c-3.8-8.7,4.5-15.3,1.1-24.7c-2.9-8.1-10.8-8-13-16.1c-1.4-4.9,0.2-9.9,2-13.5
						c-0.3,0.1-0.6,0.2-0.9,0.2c-4.5,1.1-9.1,1.4-13.6,0.9c0.7,9.6,1.3,19.1,1.9,28.6c1,15.8,11.6,29.3,26.8,34.1
						c1.4-0.4,2.7-1,4-1.6C88.3,77.1,85.4,74.3,83.7,70.8z"/>
					<ellipse id="Oval" class="st4" cx="88" cy="48.6" rx="19.5" ry="19.5"/>
					<ellipse class="st5" cx="88" cy="48.6" rx="19.5" ry="19.5"/>
					<path class="st0" d="M93.2,52.4l-0.8-0.9C92.6,51.9,92.9,52.2,93.2,52.4z"/>
					
						<linearGradient id="SVGID_1_" gradientUnits="userSpaceOnUse" x1="-401.526" y1="414.5408" x2="-402.1562" y2="415.1657" gradientTransform="matrix(23.2432 0 0 -23.1457 9450.3506 9615.5635)">
						<stop  offset="0" style="stop-color:#41E6D1"/>
						<stop  offset="1" style="stop-color:#A9F4EA"/>
					</linearGradient>
					<ellipse class="st6" cx="114.8" cy="18" rx="8.6" ry="8.6"/>
					
						<linearGradient id="SVGID_2_" gradientUnits="userSpaceOnUse" x1="-397.9388" y1="411.8117" x2="-398.6837" y2="412.5535" gradientTransform="matrix(19.6475 0 0 -19.6489 7933.0298 8115.4658)">
						<stop  offset="0" style="stop-color:#1EE2C9"/>
						<stop  offset="1" style="stop-color:#41E6D1"/>
					</linearGradient>
					<path class="st7" d="M120.9,24.2L108.7,12c-2.4,2.5-3.1,6.2-1.8,9.3s4.5,5.2,8,5.2C117.2,26.6,119.3,25.8,120.9,24.2z"/>
					<g id="Invite" transform="translate(104.054054, 9.419753)">
						<g id="Helix_PW_MTN-complete_375">
							<g id="_--_-color">
								<g id="Mask">
									<path id="path-1" class="st5" d="M8.3,7V6.1c0-1.4,1.1-2.6,2.5-2.6c0.7,0,1.3,0.3,1.8,0.8c0.5,0.5,0.7,1.1,0.7,1.8V7h0.6
										c0.1,0,0.2,0,0.2,0.1c0.1,0.1,0.1,0.1,0.1,0.2v4.9c0,0.1,0,0.2-0.1,0.2c-0.1,0.1-0.1,0.1-0.2,0.1H7.7c-0.1,0-0.2,0-0.2-0.1
										c-0.1-0.1-0.1-0.1-0.1-0.2V7.3c0-0.1,0-0.2,0.1-0.2C7.5,7,7.6,7,7.7,7H8.3z M9.1,7h3.4V6.1c0.1-0.6-0.2-1.3-0.8-1.6
										c-0.6-0.3-1.3-0.3-1.8,0C9.3,4.8,9,5.5,9.1,6.1V7z"/>
								</g>
							</g>
						</g>
					</g>
					<path class="st8" d="M115.6,18.5c0-0.4-0.4-0.8-0.8-0.8c-0.4,0-0.8,0.4-0.8,0.8c0,0.3,0.2,0.6,0.5,0.7l-0.5,1.1h1.5l-0.5-1.1
						C115.4,19.2,115.6,18.9,115.6,18.5z"/>
				</g>
				<path class="st4" d="M98.9,41.8L97.8,40l-1.4,0.9l-1.1,0.7l-1.4,0.9l-10.1,6c-1.7-1.7-4.4-1.8-6.2-0.3c-1.8,1.5-2.3,4.1-1,6.1
					c1.3,2,3.9,2.7,6,1.6c2.1-1.1,3.1-3.5,2.3-5.7l10.1-6l2,3.2l1.4-0.9l-2-3.2l1.1-0.7l2,3.2l1.4-0.9L98.9,41.8z M81.6,53.9
					c-1.2,0.7-2.9,0.3-3.6-0.9c-0.7-1.2-0.3-2.8,0.9-3.6c1.2-0.7,2.9-0.3,3.6,0.9c0.4,0.6,0.5,1.3,0.3,2
					C82.6,53,82.2,53.6,81.6,53.9L81.6,53.9z"/>
			</g>
		</g>
	</g>
</g>
</svg>
