<?xml version="1.0" encoding="UTF-8"?>
<svg width="176px" height="124px" viewBox="0 0 176 124" version="1.1" xmlns="http://www.w3.org/2000/svg" xmlns:xlink="http://www.w3.org/1999/xlink">
    <title>upsell</title>
    <defs>
        <polygon id="path-1" points="0.15654149 0.0852014888 8.64312964 0.0852014888 8.64312964 9.08136031 0.15654149 9.08136031"></polygon>
        <radialGradient cx="19.2474387%" cy="99.4651948%" fx="19.2474387%" fy="99.4651948%" r="108.959529%" id="radialGradient-3">
            <stop stop-color="#0099FF" offset="0%"></stop>
            <stop stop-color="#A033FF" offset="60.9753877%"></stop>
            <stop stop-color="#FF5280" offset="93.482299%"></stop>
            <stop stop-color="#FF7061" offset="100%"></stop>
        </radialGradient>
    </defs>
    <g id="Linking-flow" stroke="none" stroke-width="1" fill="none" fill-rule="evenodd">
        <g id="social-ar-upsell-web" transform="translate(-924.000000, -289.000000)">
            <g id="upsell" transform="translate(924.000000, 289.000000)">
                <g id="Group-3">
                    <path d="M157.373946,123.84 C158.470814,123.84 158.634567,123.320144 157.748959,122.685504 L139.536941,109.634496 C138.647188,108.996886 137.038679,108.48 135.940678,108.48 L23.4193218,108.48 C22.322914,108.48 20.7086672,108.999856 19.8230587,109.634496 L1.61104118,122.685504 C0.721287704,123.323114 0.896214813,123.84 1.9860535,123.84 L157.373946,123.84 Z" id="Fill-2" fill="#E0E4E9"></path>
                    <rect id="Rectangle" stroke="#E0E4E9" stroke-width="3.84" x="25.92" y="28.8" width="107.52" height="72" rx="1.92"></rect>
                    <rect id="Rectangle" stroke="#7E1FFF" stroke-width="1.92" fill="#FFFFFF" x="8.64" y="53.76" width="32.64" height="60.48" rx="3.84"></rect>
                    <g id="Group-2" transform="translate(14.400000, 75.840000)">
                        <polygon id="Fill-1" fill="#6001D2" fill-rule="nonzero" points="8.88365152 4.57525895 6.44749527 10.4496216 4.03224376 4.57525895 -1.51287263e-13 4.57525895 4.49451863 14.6651309 2.87731087 18.3010358 6.82550466 18.3010358 12.8107251 4.57525895"></polygon>
                        <path d="M13.6228116,9.95336402 C12.1731508,9.95336402 11.085194,11.0432924 11.085194,12.3117575 C11.085194,13.5596848 12.1304815,14.5904397 13.5374731,14.5904397 C14.9877904,14.5904397 16.0750908,13.5204392 16.0750908,12.2322496 C16.0750908,10.9639878 15.0304597,9.95336402 13.6228116,9.95336402" id="Fill-2" fill="#6001D2" fill-rule="nonzero"></path>
                        <g id="Fill-4-Clipped" transform="translate(12.293522, 0.000000)">
                            <mask id="mask-2" fill="white">
                                <use xlink:href="#path-1"></use>
                            </mask>
                            <g id="path-1"></g>
                            <polygon id="Fill-4" fill="#6001D2" fill-rule="nonzero" mask="url(#mask-2)" points="4.16526403 0.0851811544 0.15654149 9.08136031 4.63462592 9.08136031 8.64312964 0.0851811544"></polygon>
                        </g>
                    </g>
                    <rect id="Rectangle-Copy-5" fill="#7E1FFF" x="14.4" y="52.8" width="21.12" height="7.68" rx="3.84"></rect>
                    <rect id="Rectangle" fill="#FFFFFF" x="18.24" y="55.68" width="13.44" height="1.536" rx="0.768"></rect>
                    <rect id="Rectangle" fill="#7E1FFF" x="9.6" y="109.44" width="30.72" height="3.84"></rect>
                    <path d="M170.544471,16.9286156 L173.870009,18.8486156 C174.32917,19.1137123 174.48649,19.7008391 174.221393,20.16 C173.956296,20.6191609 173.36917,20.7764811 172.910009,20.5113844 L169.584471,18.5913844 C169.12531,18.3262877 168.96799,17.7391609 169.233087,17.28 C169.498184,16.8208391 170.08531,16.6635189 170.544471,16.9286156 Z M175.817828,11.1061685 C175.909895,11.628307 175.561253,12.1262191 175.039115,12.2182862 L171.257453,12.8850952 C170.735314,12.9771623 170.237402,12.6285205 170.145335,12.106382 C170.053268,11.5842435 170.40191,11.0863314 170.924048,10.9942643 L174.70571,10.3274553 C175.227849,10.2353882 175.725761,10.58403 175.817828,11.1061685 Z M171.221077,3.14436268 C171.627229,3.48516441 171.680205,4.09068978 171.339404,4.49684146 L168.871099,7.43845212 C168.530298,7.84460379 167.924772,7.8975804 167.518621,7.55677868 C167.112469,7.21597695 167.059492,6.61045158 167.400294,6.20429991 L169.868598,3.26268924 C170.2094,2.85653757 170.814926,2.80356096 171.221077,3.14436268 Z M155.295425,3.26268924 L157.763729,6.20429991 C158.104531,6.61045158 158.051555,7.21597695 157.645403,7.55677868 C157.239251,7.8975804 156.633726,7.84460379 156.292924,7.43845212 L153.82462,4.49684146 C153.483818,4.09068978 153.536795,3.48516441 153.942946,3.14436268 C154.349098,2.80356096 154.954623,2.85653757 155.295425,3.26268924 Z M162.582012,-2.08046913e-13 C163.112205,-2.08033286e-13 163.542012,0.42980664 163.542012,0.96 L163.542012,4.8 C163.542012,5.33019336 163.112205,5.76 162.582012,5.76 C162.051818,5.76 161.622012,5.33019336 161.622012,4.8 L161.622012,0.96 C161.622012,0.42980664 162.051818,-2.0806054e-13 162.582012,-2.08046913e-13 Z" id="Combined-Shape" fill="#7E1FFF"></path>
                    <g id="Group" transform="translate(107.520000, 11.520000)">
                        <path d="M51.84,0.96 C53.1654834,0.96 54.3654834,1.4972583 55.2341125,2.36588745 C56.1027417,3.2345166 56.64,4.4345166 56.64,5.76 L56.64,5.76 L56.64,24.96 C56.64,26.2854834 56.1027417,27.4854834 55.2341125,28.3541125 C54.3654834,29.2227417 53.1654834,29.76 51.84,29.76 L51.84,29.76 L28.1583623,29.76 L15.186419,39.6524694 C14.5540336,40.1347297 13.7860415,40.3150096 13.0555806,40.2166281 C12.3251198,40.1182466 11.6321902,39.7412037 11.14993,39.1088183 C10.7672645,38.6070311 10.56,37.9934487 10.56,37.3623994 L10.56,37.3623994 L10.56,29.76 L5.76,29.76 C4.4345166,29.76 3.2345166,29.2227417 2.36588745,28.3541125 C1.4972583,27.4854834 0.96,26.2854834 0.96,24.96 L0.96,24.96 L0.96,5.76 C0.96,4.4345166 1.4972583,3.2345166 2.36588745,2.36588745 C3.2345166,1.4972583 4.4345166,0.96 5.76,0.96 L5.76,0.96 Z" id="Combined-Shape" stroke="#7E1FFF" stroke-width="1.92" fill="#FFFFFF"></path>
                        <path d="M13.6635063,19.8612357 L13.2550912,17.4477526 L15.1133801,18.9964043 L16.2365217,17.0253931 L13.8881346,16.1605617 L16.2365217,15.3158426 L15.1133801,13.3448314 L13.2550912,14.8934831 L13.6635063,12.48 L11.1925947,12.48 L11.6214306,14.8934831 L9.7427209,13.3448314 L8.64,15.3158426 L10.9883871,16.180674 L8.64,17.0253931 L9.7427209,18.9964043 L11.6214306,17.4477526 L11.1925947,19.8612357 L13.6635063,19.8612357 Z M25.3504628,19.8612357 L24.9420477,17.4477526 L26.8003366,18.9964043 L27.9234783,17.0253931 L25.5750912,16.1605617 L27.9234783,15.3158426 L26.8003366,13.3448314 L24.9420477,14.8934831 L25.3504628,12.48 L22.8795512,12.48 L23.3083871,14.8934831 L21.4296774,13.3448314 L20.3269565,15.3158426 L22.6753436,16.180674 L20.3269565,17.0253931 L21.4296774,18.9964043 L23.3083871,17.4477526 L22.8795512,19.8612357 L25.3504628,19.8612357 Z M36.4530715,19.8612357 L36.0446564,17.4477526 L37.9029453,18.9964043 L39.026087,17.0253931 L36.6776999,16.1605617 L39.026087,15.3158426 L37.9029453,13.3448314 L36.0446564,14.8934831 L36.4530715,12.48 L33.9821599,12.48 L34.4109958,14.8934831 L32.5322861,13.3448314 L31.4295652,15.3158426 L33.7779523,16.180674 L31.4295652,17.0253931 L32.5322861,18.9964043 L34.4109958,17.4477526 L33.9821599,19.8612357 L36.4530715,19.8612357 Z M48.1400281,19.8612357 L47.7316129,17.4477526 L49.5899018,18.9964043 L50.7130435,17.0253931 L48.3646564,16.1605617 L50.7130435,15.3158426 L49.5899018,13.3448314 L47.7316129,14.8934831 L48.1400281,12.48 L45.6691164,12.48 L46.0979523,14.8934831 L44.2192426,13.3448314 L43.1165217,15.3158426 L45.4649088,16.180674 L43.1165217,17.0253931 L44.2192426,18.9964043 L46.0979523,17.4477526 L45.6691164,19.8612357 L48.1400281,19.8612357 Z" id="****-copy-2" fill="#6001D2"></path>
                    </g>
                </g>
                <g id="Group-5" transform="translate(61.000000, 46.000000)">
                    <path d="M21,0 C9.17007,0 0,8.66545596 0,20.3700375 C0,26.4923048 2.50908,31.7826346 6.595176,35.4367253 C6.93819,35.7437459 7.14525,36.1738266 7.15932,36.6341475 L7.273686,40.3696344 C7.310226,41.5611766 8.540994,42.336498 9.631314,41.8551771 L13.79952,40.0151537 C14.152866,39.8593334 14.5488,39.8303534 14.92113,39.9328336 C16.83654,40.4595145 18.875136,40.7400751 21,40.7400751 C32.82993,40.7400751 42,32.0746191 42,20.3700375 C42,8.66545596 32.82993,0 21,0 Z" id="Path" fill="url(#radialGradient-3)"></path>
                    <path d="M8.16500933,25.5438113 L14.4436094,16.2774633 C15.442329,14.8033258 17.5810072,14.4362826 19.0795354,15.4817392 L24.0732186,18.9657858 C24.5313908,19.285507 25.1617943,19.2837971 25.6180428,18.9616899 L32.3622532,14.2002695 C33.2624388,13.5648037 34.4374507,14.566915 33.8350471,15.4562092 L27.556447,24.7226367 C26.557642,26.1966947 24.4189637,26.5638174 22.9205211,25.5182813 L17.9267096,22.0341551 C17.4685802,21.7145134 16.8381339,21.7162234 16.3819282,22.0383306 L9.63767502,26.799751 C8.73753217,27.435177 7.56247747,26.4330657 8.16500933,25.5438113 Z" id="Path" fill="#FFFFFF"></path>
                </g>
            </g>
        </g>
    </g>
</svg>