<?xml version="1.0" encoding="UTF-8"?>
<svg width="16px" height="24px" viewBox="0 0 16 24" version="1.1" xmlns="http://www.w3.org/2000/svg" xmlns:xlink="http://www.w3.org/1999/xlink">
    <title>messenger-phone-v0.0.1</title>
    <defs>
        <linearGradient x1="44.3281424%" y1="130.397273%" x2="70.2479339%" y2="0%" id="linearGradient-1">
            <stop stop-color="#769FFC" offset="0%"></stop>
            <stop stop-color="#7764F9" offset="100%"></stop>
        </linearGradient>
        <path d="M14.1818182,0 C14.784,0 15.2727273,0.487636364 15.2727273,1.09090909 L15.2727273,1.09090909 L15.2727273,22.9090909 C15.2727273,23.5123636 14.784,24 14.1818182,24 L14.1818182,24 L1.09090909,24 C0.487636364,24 0,23.5123636 0,22.9090909 L0,22.9090909 L0,1.09090909 C0,0.487636364 0.487636364,0 1.09090909,0 L1.09090909,0 Z M13.0909091,17.4545455 L2.18181818,17.4545455 L2.18181818,21.8181818 L13.0909091,21.8181818 L13.0909091,17.4545455 Z M7.63636364,18.5454545 C8.23854545,18.5454545 8.72727273,19.0330909 8.72727273,19.6363636 C8.72727273,20.2385455 8.23854545,20.7272727 7.63636364,20.7272727 C7.03418182,20.7272727 6.54545455,20.2385455 6.54545455,19.6363636 C6.54545455,19.0330909 7.03418182,18.5454545 7.63636364,18.5454545 Z M13.0909091,2.18181818 L2.18181818,2.18181818 L2.18181818,15.2727273 L13.0909091,15.2727273 L13.0909091,2.18181818 Z" id="path-2"></path>
    </defs>
    <g id="Linking-flow" stroke="none" stroke-width="1" fill="none" fill-rule="evenodd">
        <g id="messenger-qr" transform="translate(-912.000000, -438.000000)" fill-rule="nonzero">
            <g id="🎨-Color" transform="translate(912.000000, 438.000000)">
                <use fill="#232A31" xlink:href="#path-2"></use>
                <use fill="url(#linearGradient-1)" xlink:href="#path-2"></use>
            </g>
        </g>
    </g>
</svg>