<?xml version="1.0" encoding="UTF-8"?>
<svg width="109px" height="87px" viewBox="0 0 109 87" version="1.1" xmlns="http://www.w3.org/2000/svg" xmlns:xlink="http://www.w3.org/1999/xlink">
    <title>unlink</title>
    <defs>
        <radialGradient cx="19.2474387%" cy="99.4651948%" fx="19.2474387%" fy="99.4651948%" r="108.959529%" id="radialGradient-1">
            <stop stop-color="#0099FF" offset="0%"></stop>
            <stop stop-color="#A033FF" offset="60.9753877%"></stop>
            <stop stop-color="#FF5280" offset="93.482299%"></stop>
            <stop stop-color="#FF7061" offset="100%"></stop>
        </radialGradient>
    </defs>
    <g id="Unlinking-flow" stroke="none" stroke-width="1" fill="none" fill-rule="evenodd">
        <g id="comm-selector" transform="translate(-671.000000, -348.000000)">
            <g id="unlink" transform="translate(672.000000, 349.000000)">
                <g id="Group-2">
                    <rect id="Rectangle" stroke="#E0E4E9" stroke-width="1.06666667" fill="#FFFFFF" fill-rule="nonzero" x="0" y="0" width="72.5333333" height="72.5333333" rx="17.0666667"></rect>
                    <circle id="Oval" stroke="#FFFFFF" stroke-width="5.33333333" fill="#6001D2" cx="80" cy="57.6" r="25.0666667"></circle>
                    <g id="unlink-copy" transform="translate(67.200000, 44.800000)">
                        <g id="invisible_box">
                            <rect id="Rectangle" x="0" y="0" width="25.6" height="25.6"></rect>
                        </g>
                        <g id="Q3_icons" transform="translate(2.133333, 1.066667)" fill="#FFFFFF" fill-rule="nonzero">
                            <g id="Group">
                                <path d="M7.41333333,10.5066667 C8.65763257,9.28700946 10.6490341,9.28700946 11.8933333,10.5066667 C12.317995,10.8251629 12.9122291,10.782932 13.2875806,10.4075806 C13.662932,10.0322291 13.7051629,9.43799499 13.3866667,9.01333333 C12.4035884,8.00998328 11.0580234,7.44457135 9.65333333,7.44457135 C8.24864326,7.44457135 6.90307826,8.00998328 5.92,9.01333333 L2.08,12.8533333 C1.07664995,13.8364116 0.511238016,15.1819766 0.511238016,16.5866667 C0.511238016,17.9913567 1.07664995,19.3369217 2.08,20.32 C4.14192468,22.3817143 7.48474199,22.3817143 9.54666667,20.32 L11.9466667,17.8133333 C12.2651629,17.3886717 12.222932,16.7944375 11.8475806,16.4190861 C11.4722291,16.0437347 10.877995,16.0015038 10.4533333,16.32 L8.05333333,18.8266667 C6.81621549,20.0637845 4.81045117,20.0637845 3.57333333,18.8266667 C2.33621549,17.5895488 2.33621549,15.5837845 3.57333333,14.3466667 L7.41333333,10.5066667 Z" id="Path"></path>
                                <path d="M4.58666667,8.32 C4.84096274,8.44914103 5.13638521,8.47106415 5.40695777,8.3808733 C5.67753032,8.29068245 5.90071443,8.09589047 6.02666667,7.84 C6.15746159,7.60022024 6.18592241,7.31779392 6.10559785,7.05673912 C6.0252733,6.79568432 5.84296604,6.57810971 5.6,6.45333333 L1.81333333,4.48 C1.55903726,4.35085897 1.26361479,4.32893585 0.993042234,4.4191267 C0.722469678,4.50931755 0.499285573,4.70410953 0.373333333,4.96 C0.24253841,5.19977976 0.214077593,5.48220608 0.294402147,5.74326088 C0.374726701,6.00431568 0.557033958,6.22189029 0.8,6.34666667 L4.58666667,8.32 Z" id="Path"></path>
                                <path d="M6.98666667,5.6 C7.11144305,5.84296604 7.32901765,6.0252733 7.59007246,6.10559785 C7.85112726,6.18592241 8.13355358,6.15746159 8.37333333,6.02666667 C8.6292238,5.90071443 8.82401578,5.67753032 8.91420663,5.40695777 C9.00439748,5.13638521 8.98247436,4.84096274 8.85333333,4.58666667 L6.88,0.8 C6.75522362,0.557033958 6.53764901,0.374726701 6.27659421,0.294402147 C6.01553941,0.214077593 5.73311309,0.24253841 5.49333333,0.373333333 C5.23744287,0.499285573 5.04265089,0.722469678 4.95246004,0.993042234 C4.86226918,1.26361479 4.8841923,1.55903726 5.01333333,1.81333333 L6.98666667,5.6 Z" id="Path"></path>
                                <path d="M21.44,15.8933333 L17.6533333,13.9733333 C17.3145201,13.7133472 16.8532961,13.6805093 16.4810666,13.8898711 C16.1088371,14.0992329 15.8973633,14.510432 15.9435756,14.9349925 C15.989788,15.3595529 16.2847774,15.7156248 16.6933333,15.84 L20.48,17.8133333 C21.0101934,18.07843 21.6549033,17.8635267 21.92,17.3333333 C22.1850966,16.80314 21.9701933,16.15843 21.44,15.8933333 L21.44,15.8933333 Z" id="Path"></path>
                                <path d="M15.3066667,16.6933333 C15.1822915,16.2847774 14.8262196,15.989788 14.4016592,15.9435756 C13.9770987,15.8973633 13.5658996,16.1088371 13.3565378,16.4810666 C13.147176,16.8532961 13.1800139,17.3145201 13.44,17.6533333 L15.36,21.44 C15.5314875,21.782975 15.8729234,22.0084094 16.2556922,22.0313844 C16.638461,22.0543594 17.0044109,21.8713844 17.2156922,21.5513844 C17.4269735,21.2313844 17.4514875,20.822975 17.28,20.48 L15.3066667,16.6933333 Z" id="Path"></path>
                                <path d="M11.9466667,6.08 L14.3466667,3.57333333 C15.5837845,2.33621549 17.5895488,2.33621549 18.8266667,3.57333333 C20.0637845,4.81045117 20.0637845,6.81621549 18.8266667,8.05333333 L15.5733333,11.3066667 L17.0666667,12.8 L20.32,9.54666667 C22.346472,7.47883598 22.3297339,4.16477767 20.2824781,2.11752189 C18.2352223,0.0702661155 14.921164,0.0535280203 12.8533333,2.08 L10.4533333,4.58666667 C10.1348371,5.01132832 10.177068,5.60556248 10.5524194,5.9809139 C10.9277709,6.35626532 11.522005,6.39849624 11.9466667,6.08 L11.9466667,6.08 Z" id="Path"></path>
                            </g>
                        </g>
                    </g>
                </g>
                <g id="Group-5" transform="translate(15.000000, 15.000000)">
                    <path d="M21,0 C9.17007,0 0,8.66545596 0,20.3700375 C0,26.4923048 2.50908,31.7826346 6.595176,35.4367253 C6.93819,35.7437459 7.14525,36.1738266 7.15932,36.6341475 L7.273686,40.3696344 C7.310226,41.5611766 8.540994,42.336498 9.631314,41.8551771 L13.79952,40.0151537 C14.152866,39.8593334 14.5488,39.8303534 14.92113,39.9328336 C16.83654,40.4595145 18.875136,40.7400751 21,40.7400751 C32.82993,40.7400751 42,32.0746191 42,20.3700375 C42,8.66545596 32.82993,0 21,0 Z" id="Path" fill="url(#radialGradient-1)"></path>
                    <path d="M8.16500933,25.5438113 L14.4436094,16.2774633 C15.442329,14.8033258 17.5810072,14.4362826 19.0795354,15.4817392 L24.0732186,18.9657858 C24.5313908,19.285507 25.1617943,19.2837971 25.6180428,18.9616899 L32.3622532,14.2002695 C33.2624388,13.5648037 34.4374507,14.566915 33.8350471,15.4562092 L27.556447,24.7226367 C26.557642,26.1966947 24.4189637,26.5638174 22.9205211,25.5182813 L17.9267096,22.0341551 C17.4685802,21.7145134 16.8381339,21.7162234 16.3819282,22.0383306 L9.63767502,26.799751 C8.73753217,27.435177 7.56247747,26.4330657 8.16500933,25.5438113 Z" id="Path" fill="#FFFFFF"></path>
                </g>
            </g>
        </g>
    </g>
</svg>