<?xml version="1.0" encoding="UTF-8"?>
<svg width="82px" height="75px" viewBox="0 0 82 75" version="1.1" xmlns="http://www.w3.org/2000/svg" xmlns:xlink="http://www.w3.org/1999/xlink">
    <title>unlink-success@1x</title>
    <g id="Unlinking-flow" stroke="none" stroke-width="1" fill="none" fill-rule="evenodd">
        <g id="messenger-unlink-success-modal" transform="translate(-675.000000, -348.000000)">
            <g id="unlink-success" transform="translate(683.000000, 356.000000)">
                <circle id="Oval" stroke="#FFFFFF" stroke-width="7.46666667" fill="#6001D2" cx="29.5" cy="29.5" r="33.2333333"></circle>
                <g id="unlink-copy" transform="translate(14.000000, 14.000000)">
                    <g id="invisible_box">
                        <rect id="Rectangle" x="0" y="0" width="30.3261538" height="30.3261538"></rect>
                    </g>
                    <g id="Q3_icons" transform="translate(2.527179, 1.263590)" fill="#FFFFFF" fill-rule="nonzero">
                        <g id="Group">
                            <path d="M8.78194872,12.446359 C10.2559647,11.0015343 12.6150096,11.0015343 14.0890256,12.446359 C14.5920864,12.8236545 15.2960253,12.7736271 15.7406724,12.3289801 C16.1853194,11.884333 16.2353468,11.1803941 15.8580513,10.6773333 C14.6934816,9.48874943 13.0995046,8.81895375 11.4354872,8.81895375 C9.77146971,8.81895375 8.17749271,9.48874943 7.01292308,10.6773333 L2.464,15.2262564 C1.27541609,16.390826 0.605620419,17.984803 0.605620419,19.6488205 C0.605620419,21.312838 1.27541609,22.906815 2.464,24.0713846 C4.9065877,26.5137231 8.86654051,26.5137231 11.3091282,24.0713846 L14.1522051,21.1019487 C14.5295007,20.598888 14.4794733,19.8949491 14.0348262,19.450302 C13.5901791,19.0056549 12.8862402,18.9556275 12.3831795,19.3329231 L9.54010256,22.302359 C8.07459374,23.7678678 5.69853447,23.7678678 4.23302564,22.302359 C2.76751682,20.8368501 2.76751682,18.4607909 4.23302564,16.9952821 L8.78194872,12.446359 Z" id="Path"></path>
                            <path d="M5.4334359,9.856 C5.73467894,10.0089825 6.08464094,10.0349529 6.40516535,9.92811145 C6.72568977,9.82126997 6.99007709,9.5905164 7.13928205,9.28738462 C7.29422373,9.00333783 7.32793885,8.66877126 7.23278515,8.35952173 C7.13763145,8.0502722 6.92166747,7.79252997 6.63384615,7.64471795 L2.14810256,5.30707692 C1.84685953,5.15409447 1.49689752,5.12812401 1.17637311,5.23496548 C0.855848696,5.34180695 0.591461371,5.57256052 0.44225641,5.87569231 C0.287314732,6.15973909 0.25359961,6.49430566 0.348753312,6.80355519 C0.443907015,7.11280473 0.659870996,7.37054695 0.947692308,7.51835897 L5.4334359,9.856 Z" id="Path"></path>
                            <path d="M8.27651282,6.63384615 C8.42432484,6.92166747 8.68206707,7.13763145 8.9913166,7.23278515 C9.30056613,7.32793885 9.6351327,7.29422373 9.91917949,7.13928205 C10.2223113,6.99007709 10.4530648,6.72568977 10.5599063,6.40516535 C10.6667478,6.08464094 10.6407773,5.73467894 10.4877949,5.4334359 L8.15015385,0.947692308 C8.00234183,0.659870996 7.7445996,0.443907015 7.43535007,0.348753312 C7.12610053,0.25359961 6.79153397,0.287314732 6.50748718,0.44225641 C6.2043554,0.591461371 5.97360182,0.855848696 5.86676035,1.17637311 C5.75991888,1.49689752 5.78588934,1.84685953 5.93887179,2.14810256 L8.27651282,6.63384615 Z" id="Path"></path>
                            <path d="M25.3981538,18.8274872 L20.9124103,16.5530256 C20.5110469,16.2450421 19.9646739,16.2061418 19.5237251,16.454155 C19.0827762,16.7021682 18.8322611,17.189281 18.887005,17.6922219 C18.9417488,18.1951627 19.2911978,18.6169709 19.7751795,18.7643077 L24.2609231,21.1019487 C24.8889983,21.4159863 25.6527316,21.1614085 25.9667692,20.5333333 C26.2808068,19.9052581 26.026229,19.1415248 25.3981538,18.8274872 L25.3981538,18.8274872 Z" id="Path"></path>
                            <path d="M18.1325128,19.7751795 C17.985176,19.2911978 17.5633679,18.9417488 17.060427,18.887005 C16.5574861,18.8322611 16.0703733,19.0827762 15.8223602,19.5237251 C15.574347,19.9646739 15.6132472,20.5110469 15.9212308,20.9124103 L18.1956923,25.3981538 C18.398839,25.8044473 18.8033093,26.0715004 19.2567431,26.0987169 C19.7101768,26.1259334 20.1436868,25.9091784 20.3939738,25.5301015 C20.6442609,25.1510246 20.6733006,24.6672165 20.4701538,24.2609231 L18.1325128,19.7751795 Z" id="Path"></path>
                            <path d="M14.1522051,7.20246154 L16.9952821,4.23302564 C18.4607909,2.76751682 20.8368501,2.76751682 22.302359,4.23302564 C23.7678678,5.69853447 23.7678678,8.07459374 22.302359,9.54010256 L18.4484103,13.3940513 L20.2174359,15.1630769 L24.0713846,11.3091282 C26.4719745,8.85954417 26.4521463,4.9336597 24.0269356,2.50844901 C21.6017249,0.0832383215 17.6758404,0.0634101163 15.2262564,2.464 L12.3831795,5.4334359 C12.0058839,5.93649663 12.0559113,6.64043555 12.5005584,7.08508262 C12.9452055,7.52972969 13.6491444,7.57975709 14.1522051,7.20246154 L14.1522051,7.20246154 Z" id="Path"></path>
                        </g>
                    </g>
                </g>
                <g id="Group-2" transform="translate(38.000000, 29.000000)">
                    <circle id="Oval" fill="#FFFFFF" cx="18" cy="18" r="18"></circle>
                    <g id="Group" transform="translate(3.000000, 3.000000)" fill="#41BE28" fill-rule="nonzero">
                        <g id="check-circle-solid">
                            <path d="M15,1.24985639 C7.40608466,1.24985639 1.24999994,7.40608466 1.24999994,15 C1.24999994,22.5939153 7.40608466,28.7500001 15,28.7500001 C22.5939153,28.7500001 28.7501436,22.5939153 28.7501436,15 C28.7667135,11.3481752 27.3234246,7.84108967 24.7411675,5.25883254 C22.1589103,2.67657542 18.6518248,1.23328652 15,1.24985639 Z M22.125,11.5 L13.375,20.25 C13.1500915,20.4951275 12.832673,20.634673 12.5,20.634673 C12.167327,20.634673 11.8499085,20.4951275 11.625,20.25 L7.93749997,16.5625 C7.47312686,16.1259284 7.36964954,15.4274565 7.68749997,14.875 C7.90551867,14.5677329 8.25049702,14.3751912 8.62647157,14.3509348 C9.00244613,14.3266784 9.36930566,14.473295 9.62499998,14.75 L12.5,17.625 L20.375,9.74999998 C20.8726504,9.37676219 21.5690186,9.42625156 22.0088835,9.8661165 C22.4487485,10.3059814 22.4982378,11.0023496 22.125,11.5 Z" id="Shape"></path>
                        </g>
                    </g>
                </g>
            </g>
        </g>
    </g>
</svg>