<?xml version="1.0" encoding="UTF-8"?>
<svg width="118px" height="80px" viewBox="0 0 118 80" version="1.1" xmlns="http://www.w3.org/2000/svg" xmlns:xlink="http://www.w3.org/1999/xlink">
    <title>messenger-browser</title>
    <defs>
        <linearGradient x1="50%" y1="90.7019413%" x2="50%" y2="0%" id="linearGradient-1">
            <stop stop-color="#EBECF4" offset="0%"></stop>
            <stop stop-color="#D9DAE3" offset="100%"></stop>
        </linearGradient>
        <radialGradient cx="19.2474387%" cy="99.4651948%" fx="19.2474387%" fy="99.4651948%" r="108.959529%" id="radialGradient-2">
            <stop stop-color="#0099FF" offset="0%"></stop>
            <stop stop-color="#A033FF" offset="60.9753877%"></stop>
            <stop stop-color="#FF5280" offset="93.482299%"></stop>
            <stop stop-color="#FF7061" offset="100%"></stop>
        </radialGradient>
    </defs>
    <g id="Linking-flow" stroke="none" stroke-width="1" fill="none" fill-rule="evenodd">
        <g id="open-messenger" transform="translate(-953.000000, -263.000000)">
            <g id="messenger-browser" transform="translate(953.000000, 263.000000)">
                <g id="Group-2-Copy" fill="url(#linearGradient-1)">
                    <path d="M115.901808,0 C117.050166,0 118,0.939613305 118,2.09868506 L118,2.09868506 L118,77.9013149 C118,79.0599137 117.060608,80 115.901808,80 L115.901808,80 L2.0981917,80 C0.949834317,80 2.86247216e-13,79.0603867 2.86247216e-13,77.9013149 L2.86247216e-13,77.9013149 L2.86247216e-13,2.09868506 C2.86247216e-13,0.940086339 0.939392421,0 2.0981917,0 L2.0981917,0 Z M114.285714,14.2857143 L4.28571429,14.2857143 L4.28571429,76.2857143 L114.285714,76.2857143 L114.285714,14.2857143 Z M10,4 C8.34314575,4 7,5.34314575 7,7 C7,8.65685425 8.34314575,10 10,10 C11.6568542,10 13,8.65685425 13,7 C13,5.34314575 11.6568542,4 10,4 Z M22,4 C20.3431458,4 19,5.34314575 19,7 C19,8.65685425 20.3431458,10 22,10 C23.6568542,10 25,8.65685425 25,7 C25,5.34314575 23.6568542,4 22,4 Z M34,4 C32.3431458,4 31,5.34314575 31,7 C31,8.65685425 32.3431458,10 34,10 C35.6568542,10 37,8.65685425 37,7 C37,5.34314575 35.6568542,4 34,4 Z" id="Combined-Shape"></path>
                </g>
                <g id="Group-5" transform="translate(44.000000, 27.000000)">
                    <path d="M17,0 C7.42339,0 0,7.01489292 0,16.4900304 C0,21.4461515 2.03116,25.7287994 5.338952,28.6868729 C5.61663,28.9354133 5.78425,29.2835739 5.79564,29.6562146 L5.888222,32.6801802 C5.917802,33.644762 6.914138,34.2724031 7.796778,33.8827624 L11.17104,32.3932197 C11.457082,32.2670794 11.7776,32.2436194 12.07901,32.3265796 C13.62958,32.7529403 15.279872,32.9800608 17,32.9800608 C26.57661,32.9800608 34,25.9651678 34,16.4900304 C34,7.01489292 26.57661,0 17,0 Z" id="Path" fill="url(#radialGradient-2)"></path>
                    <path d="M6.13327677,19.8798548 L11.2044538,12.7518948 C12.0111119,11.6179429 13.7385058,11.335602 14.9488555,12.1397994 L18.982215,14.8198352 C19.3522772,15.0657746 19.8614492,15.0644593 20.2299576,14.8166845 L25.6772045,11.1540535 C26.4042775,10.6652336 27.3533256,11.4360884 26.8667688,12.1201609 L21.7955918,19.2481821 C20.9888647,20.3820729 19.2614707,20.6644749 18.0511901,19.8602164 L14.017727,17.1801193 C13.6476994,16.9342411 13.1384928,16.9355564 12.7700189,17.1833312 L7.32273752,20.8459623 C6.59569906,21.3347515 5.64661641,20.5638967 6.13327677,19.8798548 Z" id="Path" fill="#FFFFFF"></path>
                </g>
            </g>
        </g>
    </g>
</svg>