<?xml version="1.0" encoding="utf-8"?>
<svg width="162" height="36" viewBox="0 0 162 36" fill="none" xmlns="http://www.w3.org/2000/svg">
  <path d="M74.1579 24.6172H76.8118V11.8483H74.1579V24.6172Z" style="fill: rgb(0, 0, 0);"/>
  <path d="M77.2764 7.94231C77.2764 6.95356 76.474 6.15118 75.4853 6.15118C74.4965 6.15118 73.6933 6.95356 73.6933 7.94231C73.6933 8.93106 74.4965 9.73431 75.4853 9.73431C76.474 9.73431 77.2764 8.93106 77.2764 7.94231Z" fill="white"/>
  <path d="M79.6801 6.59766H82.3339V24.6165H79.6801V6.59766Z" style="fill: rgb(0, 0, 0);"/>
  <path fill-rule="evenodd" clip-rule="evenodd" d="M71.2898 24.6059H68.6806V23.2094C67.7461 24.2681 66.0993 24.9331 64.5506 24.9331C60.8458 24.9331 57.8384 21.9257 57.8384 18.221C57.8384 14.5171 60.8458 11.5089 64.5506 11.5089C66.0993 11.5089 67.6594 12.0925 68.6806 13.1241V11.837H71.2898V24.6059ZM64.6354 14.1916C66.9192 14.1916 68.7164 15.8261 68.7164 18.221C68.7164 20.6167 66.9192 22.2652 64.6354 22.2652C62.3508 22.2652 60.6148 20.5056 60.6148 18.221C60.6148 15.9372 62.3508 14.1916 64.6354 14.1916Z" style="fill: rgb(0, 0, 0);"/>
  <path d="M35.7533 24.6058H38.3617V17.1403C38.3617 15.4735 39.717 14.1181 41.3839 14.1181C43.0499 14.1181 44.4062 15.4735 44.4062 17.1403V24.6058H47.0145V17.1403C47.0145 15.4735 48.3699 14.1181 50.0368 14.1181C51.7028 14.1181 53.059 15.4735 53.059 17.1403V24.6058H55.6674V17.1403C55.6674 13.7103 53.4458 11.5089 50.1864 11.5089C48.4487 11.5089 46.7442 12.3007 45.7099 13.5406C44.764 12.2876 43.3842 11.5089 41.5335 11.5089C40.0268 11.5115 38.9409 12.1844 38.3617 12.7286V11.837H35.7533V24.6058Z" style="fill: rgb(0, 0, 0);"/>
  <path d="M18.2114 18C18.2114 20.3223 16.3223 22.2114 14 22.2114C11.6778 22.2114 9.78863 20.3223 9.78863 18C9.78863 15.6777 11.6778 13.7886 14 13.7886C16.3223 13.7886 18.2114 15.6777 18.2114 18ZM14 4C6.28075 4 0 10.2808 0 18C0 25.7192 6.28075 32 14 32C16.828 32 19.5554 31.1582 21.8864 29.5649L21.9266 29.5369L20.0401 27.3441L20.0086 27.3651C18.214 28.5192 16.1359 29.13 14 29.13C7.86275 29.13 2.87 24.1372 2.87 18C2.87 11.8628 7.86275 6.87 14 6.87C20.1373 6.87 25.13 11.8628 25.13 18C25.13 18.7954 25.0416 19.6004 24.8675 20.3923C24.5158 21.8369 23.5043 22.2796 22.7448 22.221C21.9809 22.1589 21.0875 21.6146 21.0814 20.2829V19.2679V18C21.0814 14.0949 17.9051 10.9186 14 10.9186C10.0949 10.9186 6.91863 14.0949 6.91863 18C6.91863 21.9051 10.0949 25.0814 14 25.0814C15.897 25.0814 17.6759 24.3394 19.0173 22.991C19.7969 24.2046 21.0683 24.9659 22.5146 25.0814C22.6389 25.0919 22.7658 25.0971 22.8918 25.0971C23.9094 25.0971 24.9191 24.7568 25.7329 24.1381C26.572 23.5011 27.1985 22.5798 27.545 21.4729C27.6001 21.2944 27.7016 20.8849 27.7025 20.8822L27.7051 20.8674C27.909 19.9792 28 19.0938 28 18C28 10.2808 21.7193 4 14 4" fill="#FF9E00"/>
  <g clip-path="url(#clip0)">
    <path fill-rule="evenodd" clip-rule="evenodd" d="M93 23L93 12L94 12L94 23H93Z" fill-opacity="0.48" style="fill: rgb(0, 0, 0);"/>
    <path fill-rule="evenodd" clip-rule="evenodd" d="M152.857 15.3484C152.914 18.2084 154.419 19.9288 156.9 19.9288H157.05V18.292C157.952 18.3844 158.63 19.0576 158.902 19.9288H160.205C159.853 18.6264 158.933 17.9048 158.366 17.632C158.933 17.2932 159.738 16.466 159.928 15.3484H158.744C158.498 16.2592 157.758 17.082 157.05 17.1612V15.3484H155.844V18.5208C155.11 18.3404 154.155 17.4472 154.115 15.3484H152.857ZM156.733 23H156.276H156.234C153.776 23 152.536 23 151.77 22.23C151 21.4556 151 20.2148 151 17.7332V17.2668V17.2251C151 14.7755 151 13.5357 151.77 12.77C152.544 12 153.79 12 156.276 12H156.733C159.219 12 160.464 12 161.234 12.77C162 13.5444 162 14.7852 162 17.2668V17.7332C162 20.2104 162 21.4556 161.234 22.23C160.464 23 159.219 23 156.733 23ZM111.496 14.3361V23.616H112.962V19.9809C113.226 20.3051 113.566 20.5782 113.982 20.8001C114.399 21.0134 114.875 21.1201 115.411 21.1201C116.031 21.1201 116.588 20.975 117.081 20.6849C117.574 20.3862 117.956 19.9766 118.229 19.4561C118.509 18.927 118.649 18.3297 118.649 17.6641C118.649 16.9985 118.509 16.4054 118.229 15.8849C117.956 15.3559 117.574 14.9463 117.081 14.6561C116.588 14.3575 116.031 14.2081 115.411 14.2081C114.858 14.2081 114.369 14.3276 113.944 14.5665C113.519 14.7969 113.171 15.0785 112.899 15.4113L112.593 14.3361H111.496ZM116.545 19.2129C116.163 19.6054 115.666 19.8017 115.054 19.8017C114.433 19.8017 113.927 19.6054 113.536 19.2129C113.154 18.8118 112.962 18.2956 112.962 17.6641C112.962 17.0326 113.154 16.5206 113.536 16.1281C113.927 15.727 114.433 15.5265 115.054 15.5265C115.666 15.5265 116.163 15.727 116.545 16.1281C116.928 16.5206 117.119 17.0326 117.119 17.6641C117.119 18.2956 116.928 18.8118 116.545 19.2129ZM104 20.9921H105.466V15.6801H108.374V20.9921H109.84V14.3361H104V20.9921ZM123.088 21.1201C122.408 21.1201 121.796 20.975 121.252 20.6849C120.717 20.3862 120.296 19.9766 119.99 19.4561C119.692 18.927 119.544 18.3297 119.544 17.6641C119.544 16.9985 119.692 16.4054 119.99 15.8849C120.296 15.3559 120.717 14.9463 121.252 14.6561C121.796 14.3575 122.408 14.2081 123.088 14.2081C123.768 14.2081 124.376 14.3575 124.912 14.6561C125.456 14.9463 125.876 15.3559 126.174 15.8849C126.48 16.4054 126.633 16.9985 126.633 17.6641C126.633 18.3297 126.48 18.927 126.174 19.4561C125.876 19.9766 125.456 20.3862 124.912 20.6849C124.376 20.975 123.768 21.1201 123.088 21.1201ZM123.088 19.7761C123.683 19.7761 124.168 19.5841 124.542 19.2001C124.916 18.8075 125.103 18.2956 125.103 17.6641C125.103 17.0326 124.916 16.5249 124.542 16.1409C124.168 15.7484 123.683 15.5521 123.088 15.5521C122.493 15.5521 122.009 15.7484 121.635 16.1409C121.261 16.5249 121.074 17.0326 121.074 17.6641C121.074 18.2956 121.261 18.8075 121.635 19.2001C122.009 19.5841 122.493 19.7761 123.088 19.7761ZM134.385 18.0609C134.402 17.8732 134.411 17.7153 134.411 17.5873C134.411 16.9558 134.262 16.3841 133.964 15.8721C133.675 15.3516 133.267 14.9463 132.74 14.6561C132.222 14.3575 131.631 14.2081 130.968 14.2081C130.305 14.2081 129.71 14.3575 129.183 14.6561C128.664 14.9463 128.256 15.3559 127.959 15.8849C127.67 16.4054 127.525 16.9985 127.525 17.6641C127.525 18.3297 127.67 18.927 127.959 19.4561C128.256 19.9766 128.664 20.3862 129.183 20.6849C129.71 20.975 130.305 21.1201 130.968 21.1201C131.682 21.1201 132.328 20.9537 132.906 20.6209C133.493 20.2881 133.905 19.8145 134.143 19.2001L132.766 18.9697C132.604 19.2171 132.371 19.4134 132.065 19.5585C131.767 19.7035 131.431 19.7761 131.057 19.7761C130.505 19.7761 130.05 19.6225 129.693 19.3153C129.336 18.9995 129.123 18.5814 129.055 18.0609H134.385ZM129.808 15.8721C130.139 15.6161 130.526 15.4881 130.968 15.4881C131.418 15.4881 131.805 15.6204 132.128 15.8849C132.46 16.1409 132.689 16.4822 132.817 16.9089H129.145C129.264 16.4737 129.485 16.1281 129.808 15.8721ZM141.597 20.9921H139.672L137.377 18.3425H137.02V20.9921H135.553V14.3361H137.02V16.9217H137.377L139.595 14.3361H141.342L138.55 17.5361L141.597 20.9921ZM144.084 20.9921H145.551V15.6801H147.846V14.3361H141.789V15.6801H144.084V20.9921Z" fill-opacity="0.48" style="fill: rgb(0, 0, 0);"/>
  </g>
  <defs>
    <clipPath id="clip0">
      <rect width="79" height="12" fill="white" transform="translate(83 12)"/>
    </clipPath>
  </defs>
</svg>