<?xml version="1.0" encoding="UTF-8"?>
<svg width="16px" height="13px" viewBox="0 0 16 13" version="1.1" xmlns="http://www.w3.org/2000/svg" xmlns:xlink="http://www.w3.org/1999/xlink">
    <defs>
        <linearGradient x1="100%" y1="21.0148007%" x2="0%" y2="83.0078125%" id="linearGradient-1">
            <stop stop-color="#1476D9" offset="0%"></stop>
            <stop stop-color="#5CADFF" offset="100%"></stop>
        </linearGradient>
    </defs>
    <g id="Account-Access" stroke="none" stroke-width="1" fill="none" fill-rule="evenodd">
        <g id="User-Name-Copy-9" transform="translate(-312.000000, -174.000000)" fill="url(#linearGradient-1)">
            <path d="M324.363636,182.666667 L323.636364,182.666667 C323.234182,182.666667 322.909091,182.9895 322.909091,183.388889 C322.909091,183.788278 323.234182,184.111111 323.636364,184.111111 L324.363636,184.111111 C324.765818,184.111111 325.090909,183.788278 325.090909,183.388889 C325.090909,182.9895 324.765818,182.666667 324.363636,182.666667 L324.363636,182.666667 Z M322.909091,181.222222 L324.363636,181.222222 C324.765818,181.222222 325.090909,180.899389 325.090909,180.5 C325.090909,180.100611 324.765818,179.777778 324.363636,179.777778 L322.909091,179.777778 C322.506909,179.777778 322.181818,180.100611 322.181818,180.5 C322.181818,180.899389 322.506909,181.222222 322.909091,181.222222 L322.909091,181.222222 Z M322.909091,178.333333 L324.363636,178.333333 C324.765818,178.333333 325.090909,178.0105 325.090909,177.611111 C325.090909,177.211722 324.765818,176.888889 324.363636,176.888889 L322.909091,176.888889 C322.506909,176.888889 322.181818,177.211722 322.181818,177.611111 C322.181818,178.0105 322.506909,178.333333 322.909091,178.333333 L322.909091,178.333333 Z M326.545455,185.555556 L322.909091,185.555556 C322.437818,183.907444 320.861818,182.666667 318.144,182.666667 C315.426182,182.666667 313.925818,183.907444 313.454545,185.555556 L313.454545,175.444444 L326.545455,175.444444 L326.545455,185.555556 Z M315.131636,185.555556 C315.632,184.715611 316.399273,184.111111 318.144,184.111111 C319.888727,184.111111 320.730909,184.715611 321.231273,185.555556 L315.131636,185.555556 Z M327.272727,174 L312.727273,174 C312.325091,174 312,174.322833 312,174.722222 L312,186.277778 C312,186.676444 312.325091,187 312.727273,187 L327.272727,187 C327.674182,187 328,186.676444 328,186.277778 L328,174.722222 C328,174.322833 327.674182,174 327.272727,174 L327.272727,174 Z M318.181818,178.333333 C318.784,178.333333 319.272727,178.818667 319.272727,179.416667 C319.272727,180.014667 318.784,180.5 318.181818,180.5 C317.579636,180.5 317.090909,180.014667 317.090909,179.416667 C317.090909,178.818667 317.579636,178.333333 318.181818,178.333333 L318.181818,178.333333 Z M318.181818,181.944444 C319.587636,181.944444 320.727273,180.812722 320.727273,179.416667 C320.727273,178.019889 319.587636,176.888889 318.181818,176.888889 C316.775273,176.888889 315.636364,178.019889 315.636364,179.416667 C315.636364,180.812722 316.775273,181.944444 318.181818,181.944444 L318.181818,181.944444 Z" id="Contact-Card_AOL"></path>
        </g>
    </g>
</svg>