<?xml version="1.0" encoding="UTF-8"?>
<svg width="10px" height="16px" viewBox="0 0 10 16" version="1.1" xmlns="http://www.w3.org/2000/svg" xmlns:xlink="http://www.w3.org/1999/xlink">
    <defs>
        <linearGradient x1="69.53125%" y1="6.09342588%" x2="30.46875%" y2="100%" id="linearGradient-1">
            <stop stop-color="#1476D9" offset="0%"></stop>
            <stop stop-color="#5CADFF" offset="100%"></stop>
        </linearGradient>
    </defs>
    <g id="Account-Access" stroke="none" stroke-width="1" fill="none" fill-rule="evenodd">
        <g id="User-Name-Copy-9" transform="translate(-251.000000, -172.000000)" fill="url(#linearGradient-1)">
            <path d="M256.714286,185.090909 C256.714286,184.688727 256.394286,184.363636 256,184.363636 C255.605714,184.363636 255.285714,184.688727 255.285714,185.090909 C255.285714,185.492364 255.605714,185.818182 256,185.818182 C256.394286,185.818182 256.714286,185.492364 256.714286,185.090909 Z M259.571429,182.181818 L252.428571,182.181818 L252.428571,173.454545 L259.571429,173.454545 L259.571429,182.181818 Z M259.571429,186.545455 L252.428571,186.545455 L252.428571,183.636364 L259.571429,183.636364 L259.571429,186.545455 Z M251.714286,172 C251.319286,172 251,172.325091 251,172.727273 L251,187.272727 C251,187.674909 251.319286,188 251.714286,188 L260.285714,188 C260.68,188 261,187.674909 261,187.272727 L261,172.727273 C261,172.325091 260.68,172 260.285714,172 L251.714286,172 Z" id="Mobile_AOL"></path>
        </g>
    </g>
</svg>