<?xml version="1.0" encoding="UTF-8"?>
<svg width="48px" height="48px" viewBox="0 0 48 48" version="1.1" xmlns="http://www.w3.org/2000/svg" xmlns:xlink="http://www.w3.org/1999/xlink">
    <title>AOL gender Copy</title>
    <defs>
        <linearGradient x1="83.4710744%" y1="0%" x2="16.5289256%" y2="100%" id="linearGradient-1">
            <stop stop-color="#1476D9" offset="0%"></stop>
            <stop stop-color="#5CADFF" offset="100%"></stop>
        </linearGradient>
        <linearGradient x1="100%" y1="0%" x2="0%" y2="100%" id="linearGradient-2">
            <stop stop-color="#1476D9" offset="0%"></stop>
            <stop stop-color="#5CADFF" offset="100%"></stop>
        </linearGradient>
    </defs>
    <g id="AOL-gender-Copy" stroke="none" stroke-width="1" fill="none" fill-rule="evenodd">
        <path d="M40,18 L36,18 L36,13 C36,6.92486775 31.0751322,2 25,2 L23,2 C16.9248678,2 12,6.92486775 12,13 L12,18 L8,18 C6.8954305,18 6,18.8954305 6,20 L6,44 C6,45.1045695 6.8954305,46 8,46 L40,46 C41.1045695,46 42,45.1045695 42,44 L42,20 C42,18.8954305 41.1045695,18 40,18 Z M16,13 C16,9.13400675 19.1340068,6 23,6 L25,6 C28.8659932,6 32,9.13400675 32,13 L32,18 L16,18 L16,13 Z M38,42 L10,42 L10,22 L38,22 L38,42 Z" id="Shape" fill="url(#linearGradient-1)"></path>
        <circle id="Oval" fill="url(#linearGradient-2)" cx="16" cy="32" r="3"></circle>
        <circle id="Oval" fill="url(#linearGradient-2)" cx="24" cy="32" r="3"></circle>
        <circle id="Oval" fill="url(#linearGradient-2)" cx="32" cy="32" r="3"></circle>
    </g>
</svg>